<svg class="generator__canvas" viewBox="0 0 200 200" xmlns="http://www.w3.org/2000/svg" version="1.1" xmlns:xlink="http://www.w3.org/1999/xlink" xmlns:svgjs="http://svgjs.dev/svgjs"><circle r="5" cx="5" cy="5" fill="#e0ebff" transform="matrix(0.5732205576102138,0,0,0.5732205576102138,2.1338972119489306,2.1338972119489306)"></circle><circle r="5" cx="5" cy="15" fill="#e0ebff" transform="matrix(0.5088688428369791,0,0,0.5088688428369791,2.4556557858151047,7.366967357445314)"></circle><circle r="5" cx="5" cy="25" fill="#e0ebff" transform="matrix(0.43012053701103853,0,0,0.43012053701103853,2.8493973149448073,14.246986574724037)"></circle><circle r="5" cx="5" cy="35" fill="#e0ebff" transform="matrix(0.3528692482554033,0,0,0.3528692482554033,3.2356537587229837,22.649576311060883)"></circle><circle r="5" cx="5" cy="45" fill="#e0ebff" transform="matrix(0.2920994876867026,0,0,0.2920994876867026,3.5395025615664872,31.855523054098384)"></circle><circle r="5" cx="5" cy="55" fill="#e0ebff" transform="matrix(0.2566862046495941,0,0,0.2566862046495941,3.7165689767520296,40.88225874427233)"></circle><circle r="5" cx="5" cy="65" fill="#e0ebff" transform="matrix(0.24470577301361005,0,0,0.24470577301361005,3.77647113493195,49.09412475411535)"></circle><circle r="5" cx="5" cy="75" fill="#e0ebff" transform="matrix(0.24340542264230006,0,0,0.24340542264230006,3.7829728867884995,56.74459330182749)"></circle><circle r="5" cx="5" cy="85" fill="#e0ebff" transform="matrix(0.23977207126777333,0,0,0.23977207126777333,3.8011396436611333,64.61937394223926)"></circle><circle r="5" cx="5" cy="95" fill="#e0ebff" transform="matrix(0.22667576111548435,0,0,0.22667576111548435,3.8666211944225783,73.46580269402898)"></circle><circle r="5" cx="5" cy="105" fill="#e0ebff" transform="matrix(0.20477206259058944,0,0,0.20477206259058944,3.976139687047053,83.4989334279881)"></circle><circle r="5" cx="5" cy="115" fill="#e0ebff" transform="matrix(0.18231528380543235,0,0,0.18231528380543235,4.088423580972838,94.03374236237528)"></circle><circle r="5" cx="5" cy="125" fill="#e0ebff" transform="matrix(0.1728312248206876,0,0,0.1728312248206876,4.135843875896562,103.39609689741405)"></circle><circle r="5" cx="5" cy="135" fill="#e0ebff" transform="matrix(0.18839584784146424,0,0,0.18839584784146424,4.058020760792679,109.56656054140232)"></circle><circle r="5" cx="5" cy="145" fill="#e0ebff" transform="matrix(0.22763302564100993,0,0,0.22763302564100993,3.8618348717949504,111.99321128205355)"></circle><circle r="5" cx="5" cy="155" fill="#e0ebff" transform="matrix(0.2746814363670971,0,0,0.2746814363670971,3.6265928181645144,112.42437736309995)"></circle><circle r="5" cx="5" cy="165" fill="#e0ebff" transform="matrix(0.31254290656050654,0,0,0.31254290656050654,3.4372854671974675,113.43042041751642)"></circle><circle r="5" cx="5" cy="175" fill="#e0ebff" transform="matrix(0.33254997346246673,0,0,0.33254997346246673,3.3372501326876662,116.80375464406832)"></circle><circle r="5" cx="5" cy="185" fill="#e0ebff" transform="matrix(0.33672721116954885,0,0,0.33672721116954885,3.316363944152256,122.70546593363346)"></circle><circle r="5" cx="5" cy="195" fill="#e0ebff" transform="matrix(0.3350741697169739,0,0,0.3350741697169739,3.3246291514151305,129.6605369051901)"></circle><circle r="5" cx="15" cy="5" fill="#e0ebff" transform="matrix(0.5559570571689997,0,0,0.5559570571689997,6.660644142465005,2.2202147141550017)"></circle><circle r="5" cx="15" cy="15" fill="#e0ebff" transform="matrix(0.5002416460554907,0,0,0.5002416460554907,7.4963753091676395,7.4963753091676395)"></circle><circle r="5" cx="15" cy="25" fill="#e0ebff" transform="matrix(0.43171319764965566,0,0,0.43171319764965566,8.524302035255165,14.207170058758608)"></circle><circle r="5" cx="15" cy="35" fill="#e0ebff" transform="matrix(0.3646710264684273,0,0,0.3646710264684273,9.52993460297359,22.236514073605044)"></circle><circle r="5" cx="15" cy="45" fill="#e0ebff" transform="matrix(0.3103403156050484,0,0,0.3103403156050484,10.344895265924274,31.034685797772823)"></circle><circle r="5" cx="15" cy="55" fill="#e0ebff" transform="matrix(0.27498425921637987,0,0,0.27498425921637987,10.875236111754301,39.875865743099105)"></circle><circle r="5" cx="15" cy="65" fill="#e0ebff" transform="matrix(0.25970826638978045,0,0,0.25970826638978045,11.104376004153293,48.11896268466427)"></circle><circle r="5" cx="15" cy="75" fill="#e0ebff" transform="matrix(0.2563803050877971,0,0,0.2563803050877971,11.154295423683044,55.77147711841522)"></circle><circle r="5" cx="15" cy="85" fill="#e0ebff" transform="matrix(0.2527870734466967,0,0,0.2527870734466967,11.20819389829955,63.513098757030775)"></circle><circle r="5" cx="15" cy="95" fill="#e0ebff" transform="matrix(0.24090013046970352,0,0,0.24090013046970352,11.386498042954447,72.11448760537817)"></circle><circle r="5" cx="15" cy="105" fill="#e0ebff" transform="matrix(0.22040833450967917,0,0,0.22040833450967917,11.693874982354812,81.85712487648368)"></circle><circle r="5" cx="15" cy="115" fill="#e0ebff" transform="matrix(0.19912178197269495,0,0,0.19912178197269495,12.013173270409576,92.10099507314008)"></circle><circle r="5" cx="15" cy="125" fill="#e0ebff" transform="matrix(0.1903147685923794,0,0,0.1903147685923794,12.14527847111431,101.21065392595258)"></circle><circle r="5" cx="15" cy="135" fill="#e0ebff" transform="matrix(0.2048883793095415,0,0,0.2048883793095415,11.926674310356876,107.3400687932119)"></circle><circle r="5" cx="15" cy="145" fill="#e0ebff" transform="matrix(0.23873152087731359,0,0,0.23873152087731359,11.419027186840296,110.38392947278953)"></circle><circle r="5" cx="15" cy="155" fill="#e0ebff" transform="matrix(0.2751149715090773,0,0,0.2751149715090773,10.87327542736384,112.35717941609302)"></circle><circle r="5" cx="15" cy="165" fill="#e0ebff" transform="matrix(0.299174153525429,0,0,0.299174153525429,10.512387697118566,115.63626466830422)"></circle><circle r="5" cx="15" cy="175" fill="#e0ebff" transform="matrix(0.30548422409235154,0,0,0.30548422409235154,10.417736638614727,121.54026078383848)"></circle><circle r="5" cx="15" cy="185" fill="#e0ebff" transform="matrix(0.2991255597416228,0,0,0.2991255597416228,10.513116603875659,129.66177144779977)"></circle><circle r="5" cx="15" cy="195" fill="#e0ebff" transform="matrix(0.29257760355558915,0,0,0.29257760355558915,10.611335946666163,137.9473673066601)"></circle><circle r="5" cx="25" cy="5" fill="#e0ebff" transform="matrix(0.5464005118762595,0,0,0.5464005118762595,11.339987203093512,2.2679974406187027)"></circle><circle r="5" cx="25" cy="15" fill="#e0ebff" transform="matrix(0.4998550070143377,0,0,0.4998550070143377,12.503624824641557,7.502174894784934)"></circle><circle r="5" cx="25" cy="25" fill="#e0ebff" transform="matrix(0.44086300953735486,0,0,0.44086300953735486,13.978424761566128,13.978424761566128)"></circle><circle r="5" cx="25" cy="35" fill="#e0ebff" transform="matrix(0.381708792665,0,0,0.381708792665,15.457280183375,21.640192256725)"></circle><circle r="5" cx="25" cy="45" fill="#e0ebff" transform="matrix(0.3316714604675738,0,0,0.3316714604675738,16.708213488310655,30.07478427895918)"></circle><circle r="5" cx="25" cy="55" fill="#e0ebff" transform="matrix(0.29572629636523,0,0,0.29572629636523,17.60684259086925,38.73505369991235)"></circle><circle r="5" cx="25" cy="65" fill="#e0ebff" transform="matrix(0.27441302495342446,0,0,0.27441302495342446,18.13967437616439,47.16315337802741)"></circle><circle r="5" cx="25" cy="75" fill="#e0ebff" transform="matrix(0.2644641093350206,0,0,0.2644641093350206,18.388397266624484,55.165191799873455)"></circle><circle r="5" cx="25" cy="85" fill="#e0ebff" transform="matrix(0.25731605795276263,0,0,0.25731605795276263,18.567098551180933,63.12813507401518)"></circle><circle r="5" cx="25" cy="95" fill="#e0ebff" transform="matrix(0.2452947510760222,0,0,0.2452947510760222,18.867631223099444,71.69699864777789)"></circle><circle r="5" cx="25" cy="105" fill="#e0ebff" transform="matrix(0.2273284824589263,0,0,0.2273284824589263,19.316787938526844,81.13050934181274)"></circle><circle r="5" cx="25" cy="115" fill="#e0ebff" transform="matrix(0.21030378827219406,0,0,0.21030378827219406,19.742405293195148,90.81506434869769)"></circle><circle r="5" cx="25" cy="125" fill="#e0ebff" transform="matrix(0.20612312933959182,0,0,0.20612312933959182,19.846921766510206,99.23460883255102)"></circle><circle r="5" cx="25" cy="135" fill="#e0ebff" transform="matrix(0.22268104241340947,0,0,0.22268104241340947,19.432973939664762,104.93805927418973)"></circle><circle r="5" cx="25" cy="145" fill="#e0ebff" transform="matrix(0.25275589564178746,0,0,0.25275589564178746,18.681102608955314,108.35039513194081)"></circle><circle r="5" cx="25" cy="155" fill="#e0ebff" transform="matrix(0.2799310420193857,0,0,0.2799310420193857,18.00172394951536,111.61068848699523)"></circle><circle r="5" cx="25" cy="165" fill="#e0ebff" transform="matrix(0.2920038647772587,0,0,0.2920038647772587,17.699903380568532,116.81936231175231)"></circle><circle r="5" cx="25" cy="175" fill="#e0ebff" transform="matrix(0.286780714109725,0,0,0.286780714109725,17.830482147256873,124.81337503079813)"></circle><circle r="5" cx="25" cy="185" fill="#e0ebff" transform="matrix(0.27194424723542143,0,0,0.27194424723542143,18.201393819114465,134.69031426144704)"></circle><circle r="5" cx="25" cy="195" fill="#e0ebff" transform="matrix(0.26147016294762254,0,0,0.26147016294762254,18.463245926309437,144.0133182252136)"></circle><circle r="5" cx="35" cy="5" fill="#e0ebff" transform="matrix(0.5564522863558863,0,0,0.5564522863558863,15.52416997754398,2.2177385682205686)"></circle><circle r="5" cx="35" cy="15" fill="#e0ebff" transform="matrix(0.5192974741179626,0,0,0.5192974741179626,16.82458840587131,7.2105378882305615)"></circle><circle r="5" cx="35" cy="25" fill="#e0ebff" transform="matrix(0.46751859054562594,0,0,0.46751859054562594,18.636849330903093,13.312035236359351)"></circle><circle r="5" cx="35" cy="35" fill="#e0ebff" transform="matrix(0.4112770121217031,0,0,0.4112770121217031,20.60530457574039,20.60530457574039)"></circle><circle r="5" cx="35" cy="45" fill="#e0ebff" transform="matrix(0.3600078759176659,0,0,0.3600078759176659,22.399724342881694,28.799645583705033)"></circle><circle r="5" cx="35" cy="55" fill="#e0ebff" transform="matrix(0.3201789234062582,0,0,0.3201789234062582,23.793737680780964,37.3901592126558)"></circle><circle r="5" cx="35" cy="65" fill="#e0ebff" transform="matrix(0.2929130311378445,0,0,0.2929130311378445,24.74804391017544,45.96065297604011)"></circle><circle r="5" cx="35" cy="75" fill="#e0ebff" transform="matrix(0.2745660745754861,0,0,0.2745660745754861,25.390187389857985,54.40754440683854)"></circle><circle r="5" cx="35" cy="85" fill="#e0ebff" transform="matrix(0.26059921703966094,0,0,0.26059921703966094,25.879027403611868,62.84906655162882)"></circle><circle r="5" cx="35" cy="95" fill="#e0ebff" transform="matrix(0.24621365642260765,0,0,0.24621365642260765,26.382522025208733,71.60970263985227)"></circle><circle r="5" cx="35" cy="105" fill="#e0ebff" transform="matrix(0.23053651197263872,0,0,0.23053651197263872,26.931222080957646,80.79366624287293)"></circle><circle r="5" cx="35" cy="115" fill="#e0ebff" transform="matrix(0.21925545934776455,0,0,0.21925545934776455,27.32605892282824,89.78562217500708)"></circle><circle r="5" cx="35" cy="125" fill="#e0ebff" transform="matrix(0.2214900439931217,0,0,0.2214900439931217,27.24784846024074,97.31374450085978)"></circle><circle r="5" cx="35" cy="135" fill="#e0ebff" transform="matrix(0.24075831833914144,0,0,0.24075831833914144,26.57345885813005,102.49762702421592)"></circle><circle r="5" cx="35" cy="145" fill="#e0ebff" transform="matrix(0.26781583868746983,0,0,0.26781583868746983,25.626445645938556,106.16670339031688)"></circle><circle r="5" cx="35" cy="155" fill="#e0ebff" transform="matrix(0.2872235829628986,0,0,0.2872235829628986,24.94717459629855,110.48034464075072)"></circle><circle r="5" cx="35" cy="165" fill="#e0ebff" transform="matrix(0.28942863700853266,0,0,0.28942863700853266,24.869997704701355,117.24427489359212)"></circle><circle r="5" cx="35" cy="175" fill="#e0ebff" transform="matrix(0.27515014651911024,0,0,0.27515014651911024,25.36974487183114,126.84872435915571)"></circle><circle r="5" cx="35" cy="185" fill="#e0ebff" transform="matrix(0.25420259167167003,0,0,0.25420259167167003,26.10290929149155,137.97252054074104)"></circle><circle r="5" cx="35" cy="195" fill="#e0ebff" transform="matrix(0.24140376480644626,0,0,0.24140376480644626,26.55086823177438,147.92626586274298)"></circle><circle r="5" cx="45" cy="5" fill="#e0ebff" transform="matrix(0.5879760997361186,0,0,0.5879760997361186,18.541075511874663,2.0601195013194067)"></circle><circle r="5" cx="45" cy="15" fill="#e0ebff" transform="matrix(0.5609324726463311,0,0,0.5609324726463311,19.758038730915104,6.586012910305033)"></circle><circle r="5" cx="45" cy="25" fill="#e0ebff" transform="matrix(0.5148974987166142,0,0,0.5148974987166142,21.829612557752363,12.127562532084646)"></circle><circle r="5" cx="45" cy="35" fill="#e0ebff" transform="matrix(0.4584219511886502,0,0,0.4584219511886502,24.37101219651074,18.955231708397243)"></circle><circle r="5" cx="45" cy="45" fill="#e0ebff" transform="matrix(0.4018735227720214,0,0,0.4018735227720214,26.915691475259038,26.915691475259038)"></circle><circle r="5" cx="45" cy="55" fill="#e0ebff" transform="matrix(0.3543006470901212,0,0,0.3543006470901212,29.056470880944545,35.51346441004333)"></circle><circle r="5" cx="45" cy="65" fill="#e0ebff" transform="matrix(0.31962820152070487,0,0,0.31962820152070487,30.61673093156828,44.224166901154184)"></circle><circle r="5" cx="45" cy="75" fill="#e0ebff" transform="matrix(0.29498243915596667,0,0,0.29498243915596667,31.7257902379815,52.8763170633025)"></circle><circle r="5" cx="45" cy="85" fill="#e0ebff" transform="matrix(0.2744514346573348,0,0,0.2744514346573348,32.64968544041994,61.67162805412654)"></circle><circle r="5" cx="45" cy="95" fill="#e0ebff" transform="matrix(0.25619267127429446,0,0,0.25619267127429446,33.471329792656746,70.66169622894202)"></circle><circle r="5" cx="45" cy="105" fill="#e0ebff" transform="matrix(0.24161139579142263,0,0,0.24161139579142263,34.12748718938598,79.63080344190062)"></circle><circle r="5" cx="45" cy="115" fill="#e0ebff" transform="matrix(0.23541369589162653,0,0,0.23541369589162653,34.40638368487681,87.92742497246294)"></circle><circle r="5" cx="45" cy="125" fill="#e0ebff" transform="matrix(0.2425887827886709,0,0,0.2425887827886709,34.083504774509805,94.67640215141614)"></circle><circle r="5" cx="45" cy="135" fill="#e0ebff" transform="matrix(0.2628563043456968,0,0,0.2628563043456968,33.17146630444364,99.51439891333094)"></circle><circle r="5" cx="45" cy="145" fill="#e0ebff" transform="matrix(0.28641667153401734,0,0,0.28641667153401734,32.11124978096922,103.46958262756749)"></circle><circle r="5" cx="45" cy="155" fill="#e0ebff" transform="matrix(0.2990477774129304,0,0,0.2990477774129304,31.54285001641813,108.64759450099578)"></circle><circle r="5" cx="45" cy="165" fill="#e0ebff" transform="matrix(0.2934175313279279,0,0,0.2934175313279279,31.796211090243244,116.58610733089189)"></circle><circle r="5" cx="45" cy="175" fill="#e0ebff" transform="matrix(0.2725069726779091,0,0,0.2725069726779091,32.73718622949409,127.31127978136591)"></circle><circle r="5" cx="45" cy="185" fill="#e0ebff" transform="matrix(0.24761559920436843,0,0,0.24761559920436843,33.857298035803424,139.19111414719185)"></circle><circle r="5" cx="45" cy="195" fill="#e0ebff" transform="matrix(0.23380098362783336,0,0,0.23380098362783336,34.4789557367475,149.4088081925725)"></circle><circle r="5" cx="55" cy="5" fill="#e0ebff" transform="matrix(0.6324593546501956,0,0,0.6324593546501956,20.214735494239243,1.8377032267490216)"></circle><circle r="5" cx="55" cy="15" fill="#e0ebff" transform="matrix(0.6167320465285646,0,0,0.6167320465285646,21.079737440928945,5.749019302071531)"></circle><circle r="5" cx="55" cy="25" fill="#e0ebff" transform="matrix(0.576851387153276,0,0,0.576851387153276,23.27317370656982,10.5787153211681)"></circle><circle r="5" cx="55" cy="35" fill="#e0ebff" transform="matrix(0.520113937355005,0,0,0.520113937355005,26.393733445474727,16.796012192574825)"></circle><circle r="5" cx="55" cy="45" fill="#e0ebff" transform="matrix(0.45777092105308187,0,0,0.45777092105308187,29.822599342080498,24.400308552611317)"></circle><circle r="5" cx="55" cy="55" fill="#e0ebff" transform="matrix(0.40145972658109796,0,0,0.40145972658109796,32.91971503803961,32.91971503803961)"></circle><circle r="5" cx="55" cy="65" fill="#e0ebff" transform="matrix(0.3586308448139016,0,0,0.3586308448139016,35.27530353523541,41.688995087096394)"></circle><circle r="5" cx="55" cy="75" fill="#e0ebff" transform="matrix(0.32933601917275424,0,0,0.32933601917275424,36.886518945498516,50.299798562043435)"></circle><circle r="5" cx="55" cy="85" fill="#e0ebff" transform="matrix(0.30733741577690266,0,0,0.30733741577690266,38.096442132270354,58.876319658963276)"></circle><circle r="5" cx="55" cy="95" fill="#e0ebff" transform="matrix(0.28824783231176726,0,0,0.28824783231176726,39.1463692228528,67.6164559303821)"></circle><circle r="5" cx="55" cy="105" fill="#e0ebff" transform="matrix(0.2748427505693962,0,0,0.2748427505693962,39.883648718683204,76.1415111902134)"></circle><circle r="5" cx="55" cy="115" fill="#e0ebff" transform="matrix(0.27140165085765666,0,0,0.27140165085765666,40.07290920282888,83.78881015136949)"></circle><circle r="5" cx="55" cy="125" fill="#e0ebff" transform="matrix(0.27928997667872646,0,0,0.27928997667872646,39.639051282670046,90.08875291515919)"></circle><circle r="5" cx="55" cy="135" fill="#e0ebff" transform="matrix(0.2968475445882881,0,0,0.2968475445882881,38.67338504764415,94.92558148058112)"></circle><circle r="5" cx="55" cy="145" fill="#e0ebff" transform="matrix(0.3150415993452578,0,0,0.3150415993452578,37.67271203601082,99.31896809493762)"></circle><circle r="5" cx="55" cy="155" fill="#e0ebff" transform="matrix(0.3210408607116362,0,0,0.3210408607116362,37.342752660860015,105.2386665896964)"></circle><circle r="5" cx="55" cy="165" fill="#e0ebff" transform="matrix(0.30908460429211954,0,0,0.30908460429211954,38.00034676393342,114.00104029180028)"></circle><circle r="5" cx="55" cy="175" fill="#e0ebff" transform="matrix(0.283478863548263,0,0,0.283478863548263,39.40866250484554,125.39119887905397)"></circle><circle r="5" cx="55" cy="185" fill="#e0ebff" transform="matrix(0.25609762910113987,0,0,0.25609762910113987,40.91463039943731,137.62193861628913)"></circle><circle r="5" cx="55" cy="195" fill="#e0ebff" transform="matrix(0.24148317963301424,0,0,0.24148317963301424,41.718425120184214,147.91077997156222)"></circle><circle r="5" cx="65" cy="5" fill="#e0ebff" transform="matrix(0.6749892887792728,0,0,0.6749892887792728,21.12569622934727,1.6250535561036363)"></circle><circle r="5" cx="65" cy="15" fill="#e0ebff" transform="matrix(0.6720492974278371,0,0,0.6720492974278371,21.316795667190583,4.919260538582442)"></circle><circle r="5" cx="65" cy="25" fill="#e0ebff" transform="matrix(0.6402889993579555,0,0,0.6402889993579555,23.381215041732894,8.992775016051112)"></circle><circle r="5" cx="65" cy="35" fill="#e0ebff" transform="matrix(0.5858896110413773,0,0,0.5858896110413773,26.91717528231048,14.493863613551795)"></circle><circle r="5" cx="65" cy="45" fill="#e0ebff" transform="matrix(0.5206081048724183,0,0,0.5206081048724183,31.160473183292815,21.572635280741178)"></circle><circle r="5" cx="65" cy="55" fill="#e0ebff" transform="matrix(0.4581480023608204,0,0,0.4581480023608204,35.22037984654667,29.80185987015488)"></circle><circle r="5" cx="65" cy="65" fill="#e0ebff" transform="matrix(0.4092856223934728,0,0,0.4092856223934728,38.39643454442427,38.39643454442427)"></circle><circle r="5" cx="65" cy="75" fill="#e0ebff" transform="matrix(0.3776743694738934,0,0,0.3776743694738934,40.45116598419693,46.67442228945799)"></circle><circle r="5" cx="65" cy="85" fill="#e0ebff" transform="matrix(0.3588435642351394,0,0,0.3588435642351394,41.67516832471594,54.49829704001315)"></circle><circle r="5" cx="65" cy="95" fill="#e0ebff" transform="matrix(0.3454657186806542,0,0,0.3454657186806542,42.54472828575748,62.18075672533785)"></circle><circle r="5" cx="65" cy="105" fill="#e0ebff" transform="matrix(0.33683943592361243,0,0,0.33683943592361243,43.1054366649652,69.63185922802069)"></circle><circle r="5" cx="65" cy="115" fill="#e0ebff" transform="matrix(0.3348082998095566,0,0,0.3348082998095566,43.23746051237882,76.49704552190099)"></circle><circle r="5" cx="65" cy="125" fill="#e0ebff" transform="matrix(0.3397044484836429,0,0,0.3397044484836429,42.91921084856321,82.53694393954464)"></circle><circle r="5" cx="65" cy="135" fill="#e0ebff" transform="matrix(0.35051220179412373,0,0,0.35051220179412373,42.21670688338196,87.6808527577933)"></circle><circle r="5" cx="65" cy="145" fill="#e0ebff" transform="matrix(0.3606206632097497,0,0,0.3606206632097497,41.55965689136627,92.71000383458629)"></circle><circle r="5" cx="65" cy="155" fill="#e0ebff" transform="matrix(0.35913824234045166,0,0,0.35913824234045166,41.656014247870644,99.33357243722999)"></circle><circle r="5" cx="65" cy="165" fill="#e0ebff" transform="matrix(0.34129070348090634,0,0,0.34129070348090634,42.81610427374109,108.68703392565045)"></circle><circle r="5" cx="65" cy="175" fill="#e0ebff" transform="matrix(0.31161320341048165,0,0,0.31161320341048165,44.7451417783187,120.4676894031657)"></circle><circle r="5" cx="65" cy="185" fill="#e0ebff" transform="matrix(0.2814715280395017,0,0,0.2814715280395017,46.70435067743239,132.9277673126922)"></circle><circle r="5" cx="65" cy="195" fill="#e0ebff" transform="matrix(0.26444954091425876,0,0,0.26444954091425876,47.810779840573176,143.43233952171954)"></circle><circle r="5" cx="75" cy="5" fill="#e0ebff" transform="matrix(0.6996736727928085,0,0,0.6996736727928085,22.524474540539366,1.5016316360359578)"></circle><circle r="5" cx="75" cy="15" fill="#e0ebff" transform="matrix(0.7108981865216131,0,0,0.7108981865216131,21.682636010879023,4.3365272021758035)"></circle><circle r="5" cx="75" cy="25" fill="#e0ebff" transform="matrix(0.6899228550489542,0,0,0.6899228550489542,23.255785871328435,7.751928623776145)"></circle><circle r="5" cx="75" cy="35" fill="#e0ebff" transform="matrix(0.6419045842233917,0,0,0.6419045842233917,26.85715618324562,12.533339552181289)"></circle><circle r="5" cx="75" cy="45" fill="#e0ebff" transform="matrix(0.5787075458394326,0,0,0.5787075458394326,31.59693406204255,18.958160437225533)"></circle><circle r="5" cx="75" cy="55" fill="#e0ebff" transform="matrix(0.5154063881262777,0,0,0.5154063881262777,36.344520890529175,26.652648653054726)"></circle><circle r="5" cx="75" cy="65" fill="#e0ebff" transform="matrix(0.4653898807185818,0,0,0.4653898807185818,40.095758946106365,34.74965775329218)"></circle><circle r="5" cx="75" cy="75" fill="#e0ebff" transform="matrix(0.43554427304553983,0,0,0.43554427304553983,42.33417952158451,42.33417952158451)"></circle><circle r="5" cx="75" cy="85" fill="#e0ebff" transform="matrix(0.4235895624613861,0,0,0.4235895624613861,43.23078281539604,48.99488719078218)"></circle><circle r="5" cx="75" cy="95" fill="#e0ebff" transform="matrix(0.42024363042471535,0,0,0.42024363042471535,43.481727718146345,55.076855109652044)"></circle><circle r="5" cx="75" cy="105" fill="#e0ebff" transform="matrix(0.4186421710039173,0,0,0.4186421710039173,43.601837174706205,61.04257204458868)"></circle><circle r="5" cx="75" cy="115" fill="#e0ebff" transform="matrix(0.4182663285495988,0,0,0.4182663285495988,43.63002535878009,66.89937221679614)"></circle><circle r="5" cx="75" cy="125" fill="#e0ebff" transform="matrix(0.4191724326739307,0,0,0.4191724326739307,43.5620675494552,72.60344591575867)"></circle><circle r="5" cx="75" cy="135" fill="#e0ebff" transform="matrix(0.4211671611340188,0,0,0.4211671611340188,43.41246291494859,78.14243324690746)"></circle><circle r="5" cx="75" cy="145" fill="#e0ebff" transform="matrix(0.42105955003163176,0,0,0.42105955003163176,43.420533747627616,83.9463652454134)"></circle><circle r="5" cx="75" cy="155" fill="#e0ebff" transform="matrix(0.4107307974279274,0,0,0.4107307974279274,44.19519019290544,91.33672639867126)"></circle><circle r="5" cx="75" cy="165" fill="#e0ebff" transform="matrix(0.38575072978384384,0,0,0.38575072978384384,46.06869526621171,101.35112958566577)"></circle><circle r="5" cx="75" cy="175" fill="#e0ebff" transform="matrix(0.35018305595112115,0,0,0.35018305595112115,48.73627080366592,113.7179652085538)"></circle><circle r="5" cx="75" cy="185" fill="#e0ebff" transform="matrix(0.315005847880937,0,0,0.315005847880937,51.37456140892972,126.72391814202666)"></circle><circle r="5" cx="75" cy="195" fill="#e0ebff" transform="matrix(0.29331695882566206,0,0,0.29331695882566206,53.00122808807535,137.8031930289959)"></circle><circle r="5" cx="85" cy="5" fill="#e0ebff" transform="matrix(0.6946096361151198,0,0,0.6946096361151198,25.958180930214816,1.5269518194244007)"></circle><circle r="5" cx="85" cy="15" fill="#e0ebff" transform="matrix(0.7209075143854442,0,0,0.7209075143854442,23.722861277237243,4.186387284218338)"></circle><circle r="5" cx="85" cy="25" fill="#e0ebff" transform="matrix(0.7132474876388465,0,0,0.7132474876388465,24.37396355069805,7.168812809028839)"></circle><circle r="5" cx="85" cy="35" fill="#e0ebff" transform="matrix(0.6758610610975883,0,0,0.6758610610975883,27.551809806704995,11.34486286158441)"></circle><circle r="5" cx="85" cy="45" fill="#e0ebff" transform="matrix(0.6204182942339479,0,0,0.6204182942339479,32.26444499011443,17.081176759472346)"></circle><circle r="5" cx="85" cy="55" fill="#e0ebff" transform="matrix(0.5626666815142336,0,0,0.5626666815142336,37.17333207129015,24.053332516717152)"></circle><circle r="5" cx="85" cy="65" fill="#e0ebff" transform="matrix(0.5176002923789321,0,0,0.5176002923789321,41.00397514779077,31.355980995369414)"></circle><circle r="5" cx="85" cy="75" fill="#e0ebff" transform="matrix(0.49419514568170525,0,0,0.49419514568170525,42.99341261705506,37.93536407387211)"></circle><circle r="5" cx="85" cy="85" fill="#e0ebff" transform="matrix(0.49140138125711735,0,0,0.49140138125711735,43.230882593145026,43.230882593145026)"></circle><circle r="5" cx="85" cy="95" fill="#e0ebff" transform="matrix(0.49852018726575625,0,0,0.49852018726575625,42.62578408241072,47.640582209753155)"></circle><circle r="5" cx="85" cy="105" fill="#e0ebff" transform="matrix(0.5042070756707663,0,0,0.5042070756707663,42.14239856798486,52.05825705456954)"></circle><circle r="5" cx="85" cy="115" fill="#e0ebff" transform="matrix(0.5055430400948638,0,0,0.5055430400948638,42.028841591936576,56.86255038909066)"></circle><circle r="5" cx="85" cy="125" fill="#e0ebff" transform="matrix(0.5023223794944505,0,0,0.5023223794944505,42.30259774297171,62.209702563193694)"></circle><circle r="5" cx="85" cy="135" fill="#e0ebff" transform="matrix(0.49501204192611215,0,0,0.49501204192611215,42.92397643628047,68.17337433997486)"></circle><circle r="5" cx="85" cy="145" fill="#e0ebff" transform="matrix(0.4830742321802983,0,0,0.4830742321802983,43.93869026467464,74.95423633385674)"></circle><circle r="5" cx="85" cy="155" fill="#e0ebff" transform="matrix(0.4611040965531719,0,0,0.4611040965531719,45.80615179298039,83.52886503425836)"></circle><circle r="5" cx="85" cy="165" fill="#e0ebff" transform="matrix(0.42576919789299805,0,0,0.42576919789299805,48.80961817909517,94.74808234765533)"></circle><circle r="5" cx="85" cy="175" fill="#e0ebff" transform="matrix(0.38158538173162737,0,0,0.38158538173162737,52.565242552811675,108.22255819696521)"></circle><circle r="5" cx="85" cy="185" fill="#e0ebff" transform="matrix(0.33947949318733533,0,0,0.33947949318733533,56.144243079076496,122.19629376034297)"></circle><circle r="5" cx="85" cy="195" fill="#e0ebff" transform="matrix(0.31202489853405013,0,0,0.31202489853405013,58.47788362460574,134.15514478586022)"></circle><circle r="5" cx="95" cy="5" fill="#e0ebff" transform="matrix(0.655504888240707,0,0,0.655504888240707,32.72703561713284,1.7224755587964653)"></circle><circle r="5" cx="95" cy="15" fill="#e0ebff" transform="matrix(0.6968929720419927,0,0,0.6968929720419927,28.79516765601069,4.54660541937011)"></circle><circle r="5" cx="95" cy="25" fill="#e0ebff" transform="matrix(0.7042510119450549,0,0,0.7042510119450549,28.09615386521979,7.393724701373628)"></circle><circle r="5" cx="95" cy="35" fill="#e0ebff" transform="matrix(0.6808688933875878,0,0,0.6808688933875878,30.317455128179162,11.169588731434427)"></circle><circle r="5" cx="95" cy="45" fill="#e0ebff" transform="matrix(0.637946504568033,0,0,0.637946504568033,34.39508206603686,16.29240729443851)"></circle><circle r="5" cx="95" cy="55" fill="#e0ebff" transform="matrix(0.5911842161072967,0,0,0.5911842161072967,38.837499469806815,22.48486811409868)"></circle><circle r="5" cx="95" cy="65" fill="#e0ebff" transform="matrix(0.5559669695322542,0,0,0.5559669695322542,42.18313789443585,28.862146980403473)"></circle><circle r="5" cx="95" cy="75" fill="#e0ebff" transform="matrix(0.5418781861505763,0,0,0.5418781861505763,43.52157231569525,34.35913603870678)"></circle><circle r="5" cx="95" cy="85" fill="#e0ebff" transform="matrix(0.5483667889539585,0,0,0.5483667889539585,42.90515504937394,38.38882293891353)"></circle><circle r="5" cx="95" cy="95" fill="#e0ebff" transform="matrix(0.5644856979398604,0,0,0.5644856979398604,41.37385869571327,41.37385869571327)"></circle><circle r="5" cx="95" cy="105" fill="#e0ebff" transform="matrix(0.5765334134061789,0,0,0.5765334134061789,40.229325726413,44.46399159235121)"></circle><circle r="5" cx="95" cy="115" fill="#e0ebff" transform="matrix(0.5793765433302148,0,0,0.5793765433302148,39.95922838362959,48.3716975170253)"></circle><circle r="5" cx="95" cy="125" fill="#e0ebff" transform="matrix(0.5724925495300387,0,0,0.5724925495300387,40.61320779464632,53.438431308745166)"></circle><circle r="5" cx="95" cy="135" fill="#e0ebff" transform="matrix(0.5560311966434316,0,0,0.5560311966434316,42.177036318874,59.93578845313674)"></circle><circle r="5" cx="95" cy="145" fill="#e0ebff" transform="matrix(0.5298032466255187,0,0,0.5298032466255187,44.668691570575724,68.17852923929979)"></circle><circle r="5" cx="95" cy="155" fill="#e0ebff" transform="matrix(0.49282658518140665,0,0,0.49282658518140665,48.181474407766366,78.61187929688197)"></circle><circle r="5" cx="95" cy="165" fill="#e0ebff" transform="matrix(0.44481336665234583,0,0,0.44481336665234583,52.742730168027144,91.60579450236294)"></circle><circle r="5" cx="95" cy="175" fill="#e0ebff" transform="matrix(0.39121665681687023,0,0,0.39121665681687023,57.83441760239733,106.5370850570477)"></circle><circle r="5" cx="95" cy="185" fill="#e0ebff" transform="matrix(0.3426151000310126,0,0,0.3426151000310126,62.45156549705381,121.61620649426267)"></circle><circle r="5" cx="95" cy="195" fill="#e0ebff" transform="matrix(0.3105054919372284,0,0,0.3105054919372284,65.5019782659633,134.45142907224047)"></circle><circle r="5" cx="105" cy="5" fill="#e0ebff" transform="matrix(0.587698009856858,0,0,0.587698009856858,43.291708965029905,2.0615099507157097)"></circle><circle r="5" cx="105" cy="15" fill="#e0ebff" transform="matrix(0.6425374153994522,0,0,0.6425374153994522,37.53357138305752,5.361938769008217)"></circle><circle r="5" cx="105" cy="25" fill="#e0ebff" transform="matrix(0.6649598183683147,0,0,0.6649598183683147,35.179219071326955,8.376004540792131)"></circle><circle r="5" cx="105" cy="35" fill="#e0ebff" transform="matrix(0.6569804194029542,0,0,0.6569804194029542,36.01705596268981,12.005685320896603)"></circle><circle r="5" cx="105" cy="45" fill="#e0ebff" transform="matrix(0.6291402123586204,0,0,0.6291402123586204,38.94027770234486,16.688690443862082)"></circle><circle r="5" cx="105" cy="55" fill="#e0ebff" transform="matrix(0.5966898274186371,0,0,0.5966898274186371,42.34756812104311,22.18205949197496)"></circle><circle r="5" cx="105" cy="65" fill="#e0ebff" transform="matrix(0.5744104138269436,0,0,0.5744104138269436,44.686906548170924,27.663323101248665)"></circle><circle r="5" cx="105" cy="75" fill="#e0ebff" transform="matrix(0.5712527383830988,0,0,0.5712527383830988,45.01846246977463,32.15604462126759)"></circle><circle r="5" cx="105" cy="85" fill="#e0ebff" transform="matrix(0.5863309095642308,0,0,0.5863309095642308,43.435254495755764,35.16187268704038)"></circle><circle r="5" cx="105" cy="95" fill="#e0ebff" transform="matrix(0.6086373523614748,0,0,0.6086373523614748,41.093078002045154,37.1794515256599)"></circle><circle r="5" cx="105" cy="105" fill="#e0ebff" transform="matrix(0.6239641486766665,0,0,0.6239641486766665,39.48376438895002,39.48376438895002)"></circle><circle r="5" cx="105" cy="115" fill="#e0ebff" transform="matrix(0.6265990174537598,0,0,0.6265990174537598,39.20710316735523,42.94111299281762)"></circle><circle r="5" cx="105" cy="125" fill="#e0ebff" transform="matrix(0.6157900426318332,0,0,0.6157900426318332,40.342045523657504,48.02624467102085)"></circle><circle r="5" cx="105" cy="135" fill="#e0ebff" transform="matrix(0.5900357532642051,0,0,0.5900357532642051,43.046245907258466,55.34517330933231)"></circle><circle r="5" cx="105" cy="145" fill="#e0ebff" transform="matrix(0.5492387118247654,0,0,0.5492387118247654,47.32993525839964,65.36038678540902)"></circle><circle r="5" cx="105" cy="155" fill="#e0ebff" transform="matrix(0.4966889344071157,0,0,0.4966889344071157,52.847661887252855,78.01321516689707)"></circle><circle r="5" cx="105" cy="165" fill="#e0ebff" transform="matrix(0.43663410796292546,0,0,0.43663410796292546,59.15341866389283,92.9553721861173)"></circle><circle r="5" cx="105" cy="175" fill="#e0ebff" transform="matrix(0.3757180783656649,0,0,0.3757180783656649,65.54960177160518,109.24933628600864)"></circle><circle r="5" cx="105" cy="185" fill="#e0ebff" transform="matrix(0.323607801488366,0,0,0.323607801488366,71.02118084372157,125.13255672465229)"></circle><circle r="5" cx="105" cy="195" fill="#e0ebff" transform="matrix(0.2899252648003414,0,0,0.2899252648003414,74.55784719596414,138.46457336393343)"></circle><circle r="5" cx="115" cy="5" fill="#e0ebff" transform="matrix(0.5046022949564436,0,0,0.5046022949564436,56.97073608000898,2.476988525217782)"></circle><circle r="5" cx="115" cy="15" fill="#e0ebff" transform="matrix(0.56926200860582,0,0,0.56926200860582,49.534869010330695,6.4610698709127)"></circle><circle r="5" cx="115" cy="25" fill="#e0ebff" transform="matrix(0.6047383232936767,0,0,0.6047383232936767,45.45509282122718,9.881541917658081)"></circle><circle r="5" cx="115" cy="35" fill="#e0ebff" transform="matrix(0.6118220540715056,0,0,0.6118220540715056,44.64046378177686,13.586228107497305)"></circle><circle r="5" cx="115" cy="45" fill="#e0ebff" transform="matrix(0.6004442601355408,0,0,0.6004442601355408,45.948910084412816,17.980008293900667)"></circle><circle r="5" cx="115" cy="55" fill="#e0ebff" transform="matrix(0.5847706888790639,0,0,0.5847706888790639,47.751370778907656,22.837612111651488)"></circle><circle r="5" cx="115" cy="65" fill="#e0ebff" transform="matrix(0.5779281437818979,0,0,0.5779281437818979,48.53826346508174,27.434670654176635)"></circle><circle r="5" cx="115" cy="75" fill="#e0ebff" transform="matrix(0.5870808366560821,0,0,0.5870808366560821,47.48570378455055,30.968937250793843)"></circle><circle r="5" cx="115" cy="85" fill="#e0ebff" transform="matrix(0.6100407223284867,0,0,0.6100407223284867,44.84531693222402,33.14653860207863)"></circle><circle r="5" cx="115" cy="95" fill="#e0ebff" transform="matrix(0.6354329501472682,0,0,0.6354329501472682,41.92521073306416,34.63386973600952)"></circle><circle r="5" cx="115" cy="105" fill="#e0ebff" transform="matrix(0.6495418894645697,0,0,0.6495418894645697,40.30268271157449,36.798101606220186)"></circle><circle r="5" cx="115" cy="115" fill="#e0ebff" transform="matrix(0.6473666726112279,0,0,0.6473666726112279,40.55283264970879,40.55283264970879)"></circle><circle r="5" cx="115" cy="125" fill="#e0ebff" transform="matrix(0.6282637207160798,0,0,0.6282637207160798,42.74967211765082,46.467034910490014)"></circle><circle r="5" cx="115" cy="135" fill="#e0ebff" transform="matrix(0.5918738086121615,0,0,0.5918738086121615,46.93451200960142,55.09703583735819)"></circle><circle r="5" cx="115" cy="145" fill="#e0ebff" transform="matrix(0.539578515266024,0,0,0.539578515266024,52.948470744407246,66.76111528642653)"></circle><circle r="5" cx="115" cy="155" fill="#e0ebff" transform="matrix(0.47556545870303735,0,0,0.47556545870303735,60.309972249150704,81.2873539010292)"></circle><circle r="5" cx="115" cy="165" fill="#e0ebff" transform="matrix(0.4075425253310651,0,0,0.4075425253310651,68.13260958692752,97.75548332037425)"></circle><circle r="5" cx="115" cy="175" fill="#e0ebff" transform="matrix(0.34381905272921437,0,0,0.34381905272921437,75.46080893614035,114.83166577238748)"></circle><circle r="5" cx="115" cy="185" fill="#e0ebff" transform="matrix(0.2927467746338923,0,0,0.2927467746338923,81.33412091710238,130.84184669272992)"></circle><circle r="5" cx="115" cy="195" fill="#e0ebff" transform="matrix(0.26136694017281115,0,0,0.26136694017281115,84.94280188012672,144.0334466663018)"></circle><circle r="5" cx="125" cy="5" fill="#e0ebff" transform="matrix(0.42291698607679096,0,0,0.42291698607679096,72.13537674040113,2.8854150696160454)"></circle><circle r="5" cx="125" cy="15" fill="#e0ebff" transform="matrix(0.4923620443143907,0,0,0.4923620443143907,63.454744460701164,7.6145693352841395)"></circle><circle r="5" cx="125" cy="25" fill="#e0ebff" transform="matrix(0.5378406263951235,0,0,0.5378406263951235,57.76992170060956,11.553984340121911)"></circle><circle r="5" cx="125" cy="35" fill="#e0ebff" transform="matrix(0.5587019211705562,0,0,0.5587019211705562,55.16225985368048,15.445432759030535)"></circle><circle r="5" cx="125" cy="45" fill="#e0ebff" transform="matrix(0.5637639075698662,0,0,0.5637639075698662,54.529511553766724,19.630624159356024)"></circle><circle r="5" cx="125" cy="55" fill="#e0ebff" transform="matrix(0.5656502388511864,0,0,0.5656502388511864,54.2937201436017,23.88923686318475)"></circle><circle r="5" cx="125" cy="65" fill="#e0ebff" transform="matrix(0.5752844837810922,0,0,0.5752844837810922,53.08943952736348,27.60650855422901)"></circle><circle r="5" cx="125" cy="75" fill="#e0ebff" transform="matrix(0.5973646932764664,0,0,0.5973646932764664,50.329413340441704,30.197648004265027)"></circle><circle r="5" cx="125" cy="85" fill="#e0ebff" transform="matrix(0.6277116036637107,0,0,0.6277116036637107,46.53604954203617,31.64451368858459)"></circle><circle r="5" cx="125" cy="95" fill="#e0ebff" transform="matrix(0.6542026560558104,0,0,0.6542026560558104,43.2246679930237,32.85074767469801)"></circle><circle r="5" cx="125" cy="105" fill="#e0ebff" transform="matrix(0.6640302260902201,0,0,0.6640302260902201,41.99622173872248,35.27682626052689)"></circle><circle r="5" cx="125" cy="115" fill="#e0ebff" transform="matrix(0.6530386347517319,0,0,0.6530386347517319,43.37017065603352,39.900557003550844)"></circle><circle r="5" cx="125" cy="125" fill="#e0ebff" transform="matrix(0.6214085649345428,0,0,0.6214085649345428,47.32392938318215,47.32392938318215)"></circle><circle r="5" cx="125" cy="135" fill="#e0ebff" transform="matrix(0.5720335001575337,0,0,0.5720335001575337,53.49581248030829,57.77547747873295)"></circle><circle r="5" cx="125" cy="145" fill="#e0ebff" transform="matrix(0.5101835114961517,0,0,0.5101835114961517,61.227061062981036,71.023390833058)"></circle><circle r="5" cx="125" cy="155" fill="#e0ebff" transform="matrix(0.44179578545928744,0,0,0.44179578545928744,69.77552681758907,86.52165325381044)"></circle><circle r="5" cx="125" cy="165" fill="#e0ebff" transform="matrix(0.37313372266929656,0,0,0.37313372266929656,78.35828466633794,103.43293575956606)"></circle><circle r="5" cx="125" cy="175" fill="#e0ebff" transform="matrix(0.3124688353833232,0,0,0.3124688353833232,85.94139557708459,120.31795380791843)"></circle><circle r="5" cx="125" cy="185" fill="#e0ebff" transform="matrix(0.26702243638352263,0,0,0.26702243638352263,91.62219545205967,135.6008492690483)"></circle><circle r="5" cx="125" cy="195" fill="#e0ebff" transform="matrix(0.24105871220764635,0,0,0.24105871220764635,94.86766097404421,147.99355111950896)"></circle><circle r="5" cx="135" cy="5" fill="#e0ebff" transform="matrix(0.3581265196365432,0,0,0.3581265196365432,86.65291984906668,3.209367401817284)"></circle><circle r="5" cx="135" cy="15" fill="#e0ebff" transform="matrix(0.42635795114278735,0,0,0.42635795114278735,77.4416765957237,8.60463073285819)"></circle><circle r="5" cx="135" cy="25" fill="#e0ebff" transform="matrix(0.4772143755179502,0,0,0.4772143755179502,70.57605930507673,13.069640612051245)"></circle><circle r="5" cx="135" cy="35" fill="#e0ebff" transform="matrix(0.5088780275568519,0,0,0.5088780275568519,66.301466279825,17.189269035510186)"></circle><circle r="5" cx="135" cy="45" fill="#e0ebff" transform="matrix(0.5284281363984054,0,0,0.5284281363984054,63.662201586215275,21.22073386207176)"></circle><circle r="5" cx="135" cy="55" fill="#e0ebff" transform="matrix(0.5466678508519227,0,0,0.5466678508519227,61.19984013499044,24.93326820314425)"></circle><circle r="5" cx="135" cy="65" fill="#e0ebff" transform="matrix(0.5721446372392751,0,0,0.5721446372392751,57.760473972697866,27.810598579447117)"></circle><circle r="5" cx="135" cy="75" fill="#e0ebff" transform="matrix(0.6068594409444926,0,0,0.6068594409444926,53.0739754724935,29.485541929163055)"></circle><circle r="5" cx="135" cy="85" fill="#e0ebff" transform="matrix(0.6443416070284791,0,0,0.6443416070284791,48.01388305115532,30.230963402579277)"></circle><circle r="5" cx="135" cy="95" fill="#e0ebff" transform="matrix(0.671529320337197,0,0,0.671529320337197,44.343541754478395,31.204714567966285)"></circle><circle r="5" cx="135" cy="105" fill="#e0ebff" transform="matrix(0.676638635485331,0,0,0.676638635485331,43.65378420948032,33.95294327404025)"></circle><circle r="5" cx="135" cy="115" fill="#e0ebff" transform="matrix(0.6561353543957499,0,0,0.6561353543957499,46.421727156573766,39.54443424448877)"></circle><circle r="5" cx="135" cy="125" fill="#e0ebff" transform="matrix(0.6117131450341827,0,0,0.6117131450341827,52.41872542038533,48.53585687072716)"></circle><circle r="5" cx="135" cy="135" fill="#e0ebff" transform="matrix(0.5499551373110938,0,0,0.5499551373110938,60.75605646300234,60.75605646300234)"></circle><circle r="5" cx="135" cy="145" fill="#e0ebff" transform="matrix(0.4804954548368589,0,0,0.4804954548368589,70.13311359702405,75.32815904865546)"></circle><circle r="5" cx="135" cy="155" fill="#e0ebff" transform="matrix(0.4123784766561376,0,0,0.4123784766561376,79.32890565142142,91.08133611829868)"></circle><circle r="5" cx="135" cy="165" fill="#e0ebff" transform="matrix(0.351132697602895,0,0,0.351132697602895,87.59708582360918,107.06310489552232)"></circle><circle r="5" cx="135" cy="175" fill="#e0ebff" transform="matrix(0.30001747825047237,0,0,0.30001747825047237,94.49764043618623,122.49694130616734)"></circle><circle r="5" cx="135" cy="185" fill="#e0ebff" transform="matrix(0.2636643974084423,0,0,0.2636643974084423,99.4053063498603,136.2220864794382)"></circle><circle r="5" cx="135" cy="195" fill="#e0ebff" transform="matrix(0.24431658908362106,0,0,0.24431658908362106,102.01726047371116,147.3582651286939)"></circle><circle r="5" cx="145" cy="5" fill="#e0ebff" transform="matrix(0.3206104413447276,0,0,0.3206104413447276,98.51148600501449,3.396947793276362)"></circle><circle r="5" cx="145" cy="15" fill="#e0ebff" transform="matrix(0.38024438514011816,0,0,0.38024438514011816,89.86456415468287,9.296334222898228)"></circle><circle r="5" cx="145" cy="25" fill="#e0ebff" transform="matrix(0.4295628500558274,0,0,0.4295628500558274,82.71338674190503,14.260928748604314)"></circle><circle r="5" cx="145" cy="35" fill="#e0ebff" transform="matrix(0.4669890079151044,0,0,0.4669890079151044,77.28659385230986,18.655384722971345)"></circle><circle r="5" cx="145" cy="45" fill="#e0ebff" transform="matrix(0.49740196018324845,0,0,0.49740196018324845,72.87671577342897,22.61691179175382)"></circle><circle r="5" cx="145" cy="55" fill="#e0ebff" transform="matrix(0.5293186390920103,0,0,0.5293186390920103,68.24879733165851,25.887474849939434)"></circle><circle r="5" cx="145" cy="65" fill="#e0ebff" transform="matrix(0.5688427368564573,0,0,0.5688427368564573,62.517803155813695,28.025222104330275)"></circle><circle r="5" cx="145" cy="75" fill="#e0ebff" transform="matrix(0.6153377580126118,0,0,0.6153377580126118,55.77602508817128,28.84966814905411)"></circle><circle r="5" cx="145" cy="85" fill="#e0ebff" transform="matrix(0.6601007551356524,0,0,0.6601007551356524,49.28539050533041,28.89143581346955)"></circle><circle r="5" cx="145" cy="95" fill="#e0ebff" transform="matrix(0.6892424579381123,0,0,0.6892424579381123,45.059843598973714,29.521966495879326)"></circle><circle r="5" cx="145" cy="105" fill="#e0ebff" transform="matrix(0.6919720402735245,0,0,0.6919720402735245,44.664054160338935,32.342935771279926)"></circle><circle r="5" cx="145" cy="115" fill="#e0ebff" transform="matrix(0.6651132022125923,0,0,0.6651132022125923,48.558585679174115,38.51198174555189)"></circle><circle r="5" cx="145" cy="125" fill="#e0ebff" transform="matrix(0.6119403140017539,0,0,0.6119403140017539,56.268654469745684,48.50746074978076)"></circle><circle r="5" cx="145" cy="135" fill="#e0ebff" transform="matrix(0.5421228676142429,0,0,0.5421228676142429,66.39218419593477,61.81341287207721)"></circle><circle r="5" cx="145" cy="145" fill="#e0ebff" transform="matrix(0.468899381180066,0,0,0.468899381180066,77.00958972889043,77.00958972889043)"></circle><circle r="5" cx="145" cy="155" fill="#e0ebff" transform="matrix(0.4042360853451206,0,0,0.4042360853451206,86.38576762495751,92.3434067715063)"></circle><circle r="5" cx="145" cy="165" fill="#e0ebff" transform="matrix(0.35419311596617975,0,0,0.35419311596617975,93.64199818490394,106.55813586558034)"></circle><circle r="5" cx="145" cy="175" fill="#e0ebff" transform="matrix(0.31780195107067644,0,0,0.31780195107067644,98.91871709475191,119.38465856263161)"></circle><circle r="5" cx="145" cy="185" fill="#e0ebff" transform="matrix(0.2929242592918616,0,0,0.2929242592918616,102.52598240268006,130.8090120310056)"></circle><circle r="5" cx="145" cy="195" fill="#e0ebff" transform="matrix(0.27974844158387135,0,0,0.27974844158387135,104.43647597033865,140.44905389114507)"></circle><circle r="5" cx="155" cy="5" fill="#e0ebff" transform="matrix(0.31505020430748254,0,0,0.31505020430748254,106.16721833234021,3.4247489784625875)"></circle><circle r="5" cx="155" cy="15" fill="#e0ebff" transform="matrix(0.3570962448404231,0,0,0.3570962448404231,99.65008204973441,9.643556327393654)"></circle><circle r="5" cx="155" cy="25" fill="#e0ebff" transform="matrix(0.39537997582144024,0,0,0.39537997582144024,93.71610374767675,15.115500604463994)"></circle><circle r="5" cx="155" cy="35" fill="#e0ebff" transform="matrix(0.4308612682621763,0,0,0.4308612682621763,88.21650341936267,19.91985561082383)"></circle><circle r="5" cx="155" cy="45" fill="#e0ebff" transform="matrix(0.46695233625687416,0,0,0.46695233625687416,82.6223878801845,23.987144868440662)"></circle><circle r="5" cx="155" cy="55" fill="#e0ebff" transform="matrix(0.5090112242050415,0,0,0.5090112242050415,76.10326024821856,27.004382668722716)"></circle><circle r="5" cx="155" cy="65" fill="#e0ebff" transform="matrix(0.5603556460597078,0,0,0.5603556460597078,68.14487486074529,28.576883006118997)"></circle><circle r="5" cx="155" cy="75" fill="#e0ebff" transform="matrix(0.6177871365379508,0,0,0.6177871365379508,59.24299383661763,28.66596475965369)"></circle><circle r="5" cx="155" cy="85" fill="#e0ebff" transform="matrix(0.6706346253794476,0,0,0.6706346253794476,51.051633066185616,27.996056842746952)"></circle><circle r="5" cx="155" cy="95" fill="#e0ebff" transform="matrix(0.7045600239533172,0,0,0.7045600239533172,45.79319628723583,28.066797724434863)"></circle><circle r="5" cx="155" cy="105" fill="#e0ebff" transform="matrix(0.7094065455043367,0,0,0.7094065455043367,45.04198544682781,30.512312722044655)"></circle><circle r="5" cx="155" cy="115" fill="#e0ebff" transform="matrix(0.6820194197256874,0,0,0.6820194197256874,49.28698994251846,36.56776673154596)"></circle><circle r="5" cx="155" cy="125" fill="#e0ebff" transform="matrix(0.6268522170572308,0,0,0.6268522170572308,57.837906356129224,46.64347286784614)"></circle><circle r="5" cx="155" cy="135" fill="#e0ebff" transform="matrix(0.5555735019969331,0,0,0.5555735019969331,68.88610719047537,59.997577230414024)"></circle><circle r="5" cx="155" cy="145" fill="#e0ebff" transform="matrix(0.48369318055844635,0,0,0.48369318055844635,80.02755701344081,74.86448881902528)"></circle><circle r="5" cx="155" cy="155" fill="#e0ebff" transform="matrix(0.4251238832942032,0,0,0.4251238832942032,89.1057980893985,89.1057980893985)"></circle><circle r="5" cx="155" cy="165" fill="#e0ebff" transform="matrix(0.3866210658324974,0,0,0.3866210658324974,95.0737347959629,101.20752413763793)"></circle><circle r="5" cx="155" cy="175" fill="#e0ebff" transform="matrix(0.36514479030634206,0,0,0.36514479030634206,98.40255750251698,111.09966169639014)"></circle><circle r="5" cx="155" cy="185" fill="#e0ebff" transform="matrix(0.35238275981133177,0,0,0.35238275981133177,100.38067222924357,119.80918943490363)"></circle><circle r="5" cx="155" cy="195" fill="#e0ebff" transform="matrix(0.3451725905062365,0,0,0.3451725905062365,101.49824847153334,127.69134485128389)"></circle><circle r="5" cx="165" cy="5" fill="#e0ebff" transform="matrix(0.3390968126591546,0,0,0.3390968126591546,109.04902591123948,3.304515936704227)"></circle><circle r="5" cx="165" cy="15" fill="#e0ebff" transform="matrix(0.3556283405037366,0,0,0.3556283405037366,106.32132381688346,9.665574892443951)"></circle><circle r="5" cx="165" cy="25" fill="#e0ebff" transform="matrix(0.372422076999912,0,0,0.372422076999912,103.55035729501452,15.6894480750022)"></circle><circle r="5" cx="165" cy="35" fill="#e0ebff" transform="matrix(0.3954856754743542,0,0,0.3954856754743542,99.74486354673155,21.158001358397605)"></circle><circle r="5" cx="165" cy="45" fill="#e0ebff" transform="matrix(0.4295827371948635,0,0,0.4295827371948635,94.11884836284752,25.66877682623114)"></circle><circle r="5" cx="165" cy="55" fill="#e0ebff" transform="matrix(0.4771066729444408,0,0,0.4771066729444408,86.27739896416726,28.759132988055754)"></circle><circle r="5" cx="165" cy="65" fill="#e0ebff" transform="matrix(0.5377733063385237,0,0,0.5377733063385237,76.26740445414359,30.04473508799596)"></circle><circle r="5" cx="165" cy="75" fill="#e0ebff" transform="matrix(0.6055399008553307,0,0,0.6055399008553307,65.08591635887043,29.5845074358502)"></circle><circle r="5" cx="165" cy="85" fill="#e0ebff" transform="matrix(0.6679733813174926,0,0,0.6679733813174926,54.78439208261372,28.22226258801313)"></circle><circle r="5" cx="165" cy="95" fill="#e0ebff" transform="matrix(0.7105742640760682,0,0,0.7105742640760682,47.75524642744875,27.49544491277352)"></circle><circle r="5" cx="165" cy="105" fill="#e0ebff" transform="matrix(0.7229307868173551,0,0,0.7229307868173551,45.716420175136406,29.092267384177717)"></circle><circle r="5" cx="165" cy="115" fill="#e0ebff" transform="matrix(0.7016319023298248,0,0,0.7016319023298248,49.23073611557892,34.31233123207015)"></circle><circle r="5" cx="165" cy="125" fill="#e0ebff" transform="matrix(0.651697462355922,0,0,0.651697462355922,57.46991871127288,43.537817205509754)"></circle><circle r="5" cx="165" cy="135" fill="#e0ebff" transform="matrix(0.5856447835131848,0,0,0.5856447835131848,68.3686107203245,55.93795422572005)"></circle><circle r="5" cx="165" cy="145" fill="#e0ebff" transform="matrix(0.5198832555348608,0,0,0.5198832555348608,79.21926283674797,69.61692794744518)"></circle><circle r="5" cx="165" cy="155" fill="#e0ebff" transform="matrix(0.4691621033712443,0,0,0.4691621033712443,87.58825294374469,82.27987397745713)"></circle><circle r="5" cx="165" cy="165" fill="#e0ebff" transform="matrix(0.4407542105490676,0,0,0.4407542105490676,92.27555525940384,92.27555525940384)"></circle><circle r="5" cx="165" cy="175" fill="#e0ebff" transform="matrix(0.4311764605227262,0,0,0.4311764605227262,93.85588401375018,99.54411940852292)"></circle><circle r="5" cx="165" cy="185" fill="#e0ebff" transform="matrix(0.42947537776188666,0,0,0.42947537776188666,94.13656266928871,105.54705511405096)"></circle><circle r="5" cx="165" cy="195" fill="#e0ebff" transform="matrix(0.42880329370258247,0,0,0.42880329370258247,94.2474565390739,111.38335772799643)"></circle><circle r="5" cx="175" cy="5" fill="#e0ebff" transform="matrix(0.38355728027185493,0,0,0.38355728027185493,107.87747595242539,3.0822135986407253)"></circle><circle r="5" cx="175" cy="15" fill="#e0ebff" transform="matrix(0.3700771469776588,0,0,0.3700771469776588,110.2364992789097,9.448842795335118)"></circle><circle r="5" cx="175" cy="25" fill="#e0ebff" transform="matrix(0.35742430027301386,0,0,0.35742430027301386,112.45074745222257,16.06439249317465)"></circle><circle r="5" cx="175" cy="35" fill="#e0ebff" transform="matrix(0.35799160463194196,0,0,0.35799160463194196,112.35146918941015,22.470293837882032)"></circle><circle r="5" cx="175" cy="45" fill="#e0ebff" transform="matrix(0.38044959754897656,0,0,0.38044959754897656,108.4213204289291,27.879768110296055)"></circle><circle r="5" cx="175" cy="55" fill="#e0ebff" transform="matrix(0.42638741162584587,0,0,0.42638741162584587,100.38220296547698,31.548692360578478)"></circle><circle r="5" cx="175" cy="65" fill="#e0ebff" transform="matrix(0.4922410560752808,0,0,0.4922410560752808,88.85781518682586,33.00433135510675)"></circle><circle r="5" cx="175" cy="75" fill="#e0ebff" transform="matrix(0.5690572511512504,0,0,0.5690572511512504,75.41498104853119,32.32070616365622)"></circle><circle r="5" cx="175" cy="85" fill="#e0ebff" transform="matrix(0.6424720280467088,0,0,0.6424720280467088,62.56739509182596,30.389877616029757)"></circle><circle r="5" cx="175" cy="95" fill="#e0ebff" transform="matrix(0.6972790316938763,0,0,0.6972790316938763,52.97616945357166,28.758491989081747)"></circle><circle r="5" cx="175" cy="105" fill="#e0ebff" transform="matrix(0.7218827978753393,0,0,0.7218827978753393,48.670510371815624,29.20230622308938)"></circle><circle r="5" cx="175" cy="115" fill="#e0ebff" transform="matrix(0.7122458561775057,0,0,0.7122458561775057,50.3569751689365,33.091726539586844)"></circle><circle r="5" cx="175" cy="125" fill="#e0ebff" transform="matrix(0.6733069166839112,0,0,0.6733069166839112,57.171289580315545,40.83663541451111)"></circle><circle r="5" cx="175" cy="135" fill="#e0ebff" transform="matrix(0.6175122524734565,0,0,0.6175122524734565,66.93535581714511,51.63584591608337)"></circle><circle r="5" cx="175" cy="145" fill="#e0ebff" transform="matrix(0.5611747967745268,0,0,0.5611747967745268,76.79441056445782,63.629654467693626)"></circle><circle r="5" cx="175" cy="155" fill="#e0ebff" transform="matrix(0.5191802060369178,0,0,0.5191802060369178,84.14346394353937,74.52706806427774)"></circle><circle r="5" cx="175" cy="165" fill="#e0ebff" transform="matrix(0.4994784788610179,0,0,0.4994784788610179,87.59126619932186,82.58605098793204)"></circle><circle r="5" cx="175" cy="175" fill="#e0ebff" transform="matrix(0.4996657501677474,0,0,0.4996657501677474,87.55849372064421,87.55849372064421)"></circle><circle r="5" cx="175" cy="185" fill="#e0ebff" transform="matrix(0.5082036782018811,0,0,0.5082036782018811,86.06435631467082,90.982319532652)"></circle><circle r="5" cx="175" cy="195" fill="#e0ebff" transform="matrix(0.5141670759888608,0,0,0.5141670759888608,85.02076170194935,94.73742018217214)"></circle><circle r="5" cx="185" cy="5" fill="#e0ebff" transform="matrix(0.4357339309909094,0,0,0.4357339309909094,104.38922276668175,2.821330345045453)"></circle><circle r="5" cx="185" cy="15" fill="#e0ebff" transform="matrix(0.3923470654381448,0,0,0.3923470654381448,112.41579289394322,9.114794018427828)"></circle><circle r="5" cx="185" cy="25" fill="#e0ebff" transform="matrix(0.34703341869955495,0,0,0.34703341869955495,120.79881754058233,16.324164532511126)"></circle><circle r="5" cx="185" cy="35" fill="#e0ebff" transform="matrix(0.3187846966104117,0,0,0.3187846966104117,126.02483112707384,23.84253561863559)"></circle><circle r="5" cx="185" cy="45" fill="#e0ebff" transform="matrix(0.32147583689874926,0,0,0.32147583689874926,125.52697017373139,30.533587339556284)"></circle><circle r="5" cx="185" cy="55" fill="#e0ebff" transform="matrix(0.3583040416613496,0,0,0.3583040416613496,118.71375229265033,35.29327770862577)"></circle><circle r="5" cx="185" cy="65" fill="#e0ebff" transform="matrix(0.42294073504777313,0,0,0.42294073504777313,106.75596401616197,37.50885222189474)"></circle><circle r="5" cx="185" cy="75" fill="#e0ebff" transform="matrix(0.5045320736508319,0,0,0.5045320736508319,91.6615663745961,37.16009447618761)"></circle><circle r="5" cx="185" cy="85" fill="#e0ebff" transform="matrix(0.5876243586770513,0,0,0.5876243586770513,76.2894936447455,35.05192951245064)"></circle><circle r="5" cx="185" cy="95" fill="#e0ebff" transform="matrix(0.6555193914410734,0,0,0.6555193914410734,63.728912583401424,32.725657813098024)"></circle><circle r="5" cx="185" cy="105" fill="#e0ebff" transform="matrix(0.6947729321284859,0,0,0.6947729321284859,56.4670075562301,32.04884212650899)"></circle><circle r="5" cx="185" cy="115" fill="#e0ebff" transform="matrix(0.6999822910719,0,0,0.6999822910719,55.503276151698486,34.5020365267315)"></circle><circle r="5" cx="185" cy="125" fill="#e0ebff" transform="matrix(0.6753757779189398,0,0,0.6753757779189398,60.055481084996146,40.57802776013253)"></circle><circle r="5" cx="185" cy="135" fill="#e0ebff" transform="matrix(0.632812992663209,0,0,0.632812992663209,67.92959635730634,49.57024599046679)"></circle><circle r="5" cx="185" cy="145" fill="#e0ebff" transform="matrix(0.5881681565157802,0,0,0.5881681565157802,76.18889104458066,59.715617305211865)"></circle><circle r="5" cx="185" cy="155" fill="#e0ebff" transform="matrix(0.5563867032783077,0,0,0.5563867032783077,82.06845989351307,68.7600609918623)"></circle><circle r="5" cx="185" cy="165" fill="#e0ebff" transform="matrix(0.5460857084719376,0,0,0.5460857084719376,83.97414393269155,74.89585810213029)"></circle><circle r="5" cx="185" cy="175" fill="#e0ebff" transform="matrix(0.5554804844738521,0,0,0.5554804844738521,82.23611037233736,77.79091521707588)"></circle><circle r="5" cx="185" cy="185" fill="#e0ebff" transform="matrix(0.5726879698143774,0,0,0.5726879698143774,79.05272558434018,79.05272558434018)"></circle><circle r="5" cx="185" cy="195" fill="#e0ebff" transform="matrix(0.5843621553229477,0,0,0.5843621553229477,76.89300126525468,81.0493797120252)"></circle><circle r="5" cx="195" cy="5" fill="#e0ebff" transform="matrix(0.48431421766446214,0,0,0.48431421766446214,100.55872755542988,2.5784289116776895)"></circle><circle r="5" cx="195" cy="15" fill="#e0ebff" transform="matrix(0.4157287525368302,0,0,0.4157287525368302,113.9328932553181,8.764068711947546)"></circle><circle r="5" cx="195" cy="25" fill="#e0ebff" transform="matrix(0.3400485184132843,0,0,0.3400485184132843,128.69053890940955,16.498787039667892)"></circle><circle r="5" cx="195" cy="35" fill="#e0ebff" transform="matrix(0.28205753990154425,0,0,0.28205753990154425,139.99877971919886,25.12798610344595)"></circle><circle r="5" cx="195" cy="45" fill="#e0ebff" transform="matrix(0.26092328189940744,0,0,0.26092328189940744,144.11996002961556,33.258452314526664)"></circle><circle r="5" cx="195" cy="55" fill="#e0ebff" transform="matrix(0.2828397313981023,0,0,0.2828397313981023,139.84625237737004,39.44381477310437)"></circle><circle r="5" cx="195" cy="65" fill="#e0ebff" transform="matrix(0.3404440789384818,0,0,0.3404440789384818,128.61340460699606,42.87113486899868)"></circle><circle r="5" cx="195" cy="75" fill="#e0ebff" transform="matrix(0.42091419647680417,0,0,0.42091419647680417,112.92173168702318,43.43143526423969)"></circle><circle r="5" cx="195" cy="85" fill="#e0ebff" transform="matrix(0.5087355954113044,0,0,0.5087355954113044,95.79655889479564,41.75747439003912)"></circle><circle r="5" cx="195" cy="95" fill="#e0ebff" transform="matrix(0.5864957618308526,0,0,0.5864957618308526,80.63332644298374,39.282902626069)"></circle><circle r="5" cx="195" cy="105" fill="#e0ebff" transform="matrix(0.639180416966137,0,0,0.639180416966137,70.35981869160328,37.88605621855561)"></circle><circle r="5" cx="195" cy="115" fill="#e0ebff" transform="matrix(0.6594204697927606,0,0,0.6594204697927606,66.41300839041168,39.16664597383253)"></circle><circle r="5" cx="195" cy="125" fill="#e0ebff" transform="matrix(0.650097347077043,0,0,0.650097347077043,68.23101731997662,43.737831615369615)"></circle><circle r="5" cx="195" cy="135" fill="#e0ebff" transform="matrix(0.6220339223618401,0,0,0.6220339223618401,73.70338513944118,51.025420481151585)"></circle><circle r="5" cx="195" cy="145" fill="#e0ebff" transform="matrix(0.5905135430501217,0,0,0.5905135430501217,79.84985910522627,59.37553625773235)"></circle><circle r="5" cx="195" cy="155" fill="#e0ebff" transform="matrix(0.5702605245977158,0,0,0.5702605245977158,83.79919770344542,66.60961868735404)"></circle><circle r="5" cx="195" cy="165" fill="#e0ebff" transform="matrix(0.5698382604573312,0,0,0.5698382604573312,83.8815392108204,70.97668702454035)"></circle><circle r="5" cx="195" cy="175" fill="#e0ebff" transform="matrix(0.587499155124865,0,0,0.587499155124865,80.43766475065134,72.18764785314863)"></circle><circle r="5" cx="195" cy="185" fill="#e0ebff" transform="matrix(0.6112566918000886,0,0,0.6112566918000886,75.80494509898273,71.91751201698361)"></circle><circle r="5" cx="195" cy="195" fill="#e0ebff" transform="matrix(0.6268437368701409,0,0,0.6268437368701409,72.76547131032251,72.76547131032251)"></circle></svg>