<svg xmlns="http://www.w3.org/2000/svg" version="1.1" xmlns:xlink="http://www.w3.org/1999/xlink" xmlns:svgjs="http://svgjs.dev/svgjs" viewBox="0 0 800 800" opacity="0.38"><defs><filter id="bbburst-blur-1" x="-100%" y="-100%" width="400%" height="400%"><feGaussianBlur in="SourceGraphic" stdDeviation="1"></feGaussianBlur></filter><filter id="bbburst-blur-2" x="-100%" y="-100%" width="400%" height="400%"><feGaussianBlur in="SourceGraphic" stdDeviation="2"></feGaussianBlur></filter><filter id="bbburst-blur-3" x="-100%" y="-100%" width="400%" height="400%"><feGaussianBlur in="SourceGraphic" stdDeviation="4"></feGaussianBlur></filter><filter id="bbburst-blur-4" x="-100%" y="-100%" width="400%" height="400%"><feGaussianBlur in="SourceGraphic" stdDeviation="12"></feGaussianBlur></filter><symbol id="bbburst-shape-10" viewBox="0 0 145 145"><circle cx="72.5" cy="72.5" r="61.5" fill="none" stroke-width="22"></circle></symbol><symbol id="bbburst-shape-13" viewBox="0 0 159 159"><path stroke-width="22" d="M11 11h137v137H11z"></path></symbol><symbol id="bbburst-shape-14" viewBox="0 0 185 109"><path d="M168 16.5C168 58.1975 134.197 92 92.5 92 50.8025 92 17 58.1975 17 16.5" stroke-width="33" stroke-linecap="round"></path></symbol></defs><use xlink:href="#bbburst-shape-10" width="41.23014879871452" opacity="0.20156320402181538" transform="matrix(1.0040212835053643,-0.7446081266466551,0.7446081266466551,1.0040212835053643,430.7832556053983,-70.32050931500345)" fill="none" stroke="#0000ff" filter="url(#bbburst-blur-3)"></use><use xlink:href="#bbburst-shape-13" width="20.072556945582697" opacity="0.831086391623974" transform="matrix(0.9815012232372838,-0.19145586641238097,0.19145586641238097,0.9815012232372838,378.1560694522228,49.395258639315045)" fill="none" stroke="#0000ff"></use><use xlink:href="#bbburst-shape-13" width="31.72322655160725" opacity="0.5737543942284998" transform="matrix(0.9299789598152195,-0.3676127504603211,0.3676127504603211,0.9299789598152195,46.50027080310022,27.437964394009327)" fill="none" stroke="#0000ff" filter="url(#bbburst-blur-1)"></use><use xlink:href="#bbburst-shape-10" width="35.29332951795574" opacity="0.08603099561897243" transform="matrix(1.749596403585526,-0.03758223730158788,0.03758223730158788,1.749596403585526,709.3454812158357,-506.42303616029744)" fill="none" stroke="#0000ff" filter="url(#bbburst-blur-4)"></use><use xlink:href="#bbburst-shape-10" width="37.24428486474395" opacity="0.1614542050842077" transform="matrix(1.1143744587049722,0.566276933828317,-0.566276933828317,1.1143744587049722,496.8398923113614,-417.5794478108193)" fill="none" stroke="#0000ff" filter="url(#bbburst-blur-3)"></use><use xlink:href="#bbburst-shape-13" width="39.11751477593589" opacity="0.4305430948992153" transform="matrix(0.7795706334712892,0.6263143199937017,-0.6263143199937017,0.7795706334712892,681.6085112067218,327.9544534914997)" fill="none" stroke="#0000ff" filter="url(#bbburst-blur-2)"></use><use xlink:href="#bbburst-shape-13" width="22.11522383403163" opacity="0.622475109956885" transform="matrix(0.941897583281639,0.3359001973923325,-0.3359001973923325,0.941897583281639,407.20851465496384,142.95250563967136)" fill="none" stroke="#0000ff" filter="url(#bbburst-blur-1)"></use><use xlink:href="#bbburst-shape-13" width="34.235825434985195" opacity="0.551704251958001" transform="matrix(0.9246529041787467,0.38081098565273763,-0.38081098565273763,0.9246529041787467,625.3390593655587,-157.49637892089777)" fill="none" stroke="#0000ff" filter="url(#bbburst-blur-2)"></use><use xlink:href="#bbburst-shape-13" width="28.63662533016898" opacity="0.4126808770612085" transform="matrix(0.7703986183543062,0.6375625215128129,-0.6375625215128129,0.7703986183543062,907.0483342742182,57.145411910043435)" fill="none" stroke="#0000ff" filter="url(#bbburst-blur-2)"></use><use xlink:href="#bbburst-shape-13" width="31.428870429433964" opacity="0.7124734200163603" transform="matrix(0.9988392823668407,-0.04816729181607298,0.04816729181607298,0.9988392823668407,323.4992894340126,-121.31700826581255)" fill="none" stroke="#0000ff" filter="url(#bbburst-blur-1)"></use><use xlink:href="#bbburst-shape-14" width="16.924306672812524" opacity="0.7954070081802744" transform="matrix(0.9543714148691232,-0.29862217345787934,0.29862217345787934,0.9543714148691232,266.4947240610718,112.67221167565219)" fill="none" stroke="#0000ff"></use><use xlink:href="#bbburst-shape-13" width="43.62285433746763" opacity="0.08664575048701373" transform="matrix(1.4826278237137869,-0.9296852888745311,0.9296852888745311,1.4826278237137869,347.0075321978587,40.70572264227701)" fill="none" stroke="#0000ff" filter="url(#bbburst-blur-4)"></use><use xlink:href="#bbburst-shape-13" width="51.287945657009146" opacity="0.1980934228250817" transform="matrix(1.1234513234111623,0.5480484685917006,-0.5480484685917006,1.1234513234111623,326.9927789865259,-310.0720750438644)" fill="none" stroke="#0000ff" filter="url(#bbburst-blur-3)"></use><use xlink:href="#bbburst-shape-14" width="51.25886644672696" opacity="0.20160128895049967" transform="matrix(1.1181899559543311,0.5587049511171807,-0.5587049511171807,1.1181899559543311,348.88098374474373,200.42315056525626)" fill="none" stroke="#0000ff" filter="url(#bbburst-blur-3)"></use><use xlink:href="#bbburst-shape-13" width="36.563363163246464" opacity="0.4005451609802353" transform="matrix(0.77504665147783,-0.6319040180541686,0.6319040180541686,0.77504665147783,-87.95368985691803,-53.11584992223416)" fill="none" stroke="#0000ff" filter="url(#bbburst-blur-2)"></use><use xlink:href="#bbburst-shape-13" width="16.59072981205506" opacity="0.8169620561776894" transform="matrix(0.7828226408089207,0.6222448979597562,-0.6222448979597562,0.7828226408089207,592.2830041461897,16.347108382251804)" fill="none" stroke="#0000ff"></use><use xlink:href="#bbburst-shape-13" width="24.365917628279718" opacity="0.6883425133453784" transform="matrix(0.9689945892641927,0.2470819418264283,-0.2470819418264283,0.9689945892641927,364.7146335423602,78.01012853268537)" fill="none" stroke="#0000ff" filter="url(#bbburst-blur-1)"></use><use xlink:href="#bbburst-shape-13" width="23.181509209053786" opacity="0.6813550092993527" transform="matrix(0.9105200308286782,0.41346496037722824,-0.41346496037722824,0.9105200308286782,649.7425579352464,-76.48442512200194)" fill="none" stroke="#0000ff" filter="url(#bbburst-blur-1)"></use><use xlink:href="#bbburst-shape-10" width="23.68612463432897" opacity="0.8158342568700627" transform="matrix(0.7632335533033842,-0.6461226997342612,0.6461226997342612,0.7632335533033842,52.210052123328126,81.86940556463725)" fill="none" stroke="#0000ff"></use><use xlink:href="#bbburst-shape-13" width="39.66396592617062" opacity="0.39935788261985405" transform="matrix(0.9963227258369338,-0.08567978746975323,0.08567978746975323,0.9963227258369338,513.807140670823,-208.69418502413066)" fill="none" stroke="#0000ff" filter="url(#bbburst-blur-2)"></use><use xlink:href="#bbburst-shape-14" width="31.343104326969996" opacity="0.5393564984982078" transform="matrix(0.9149834319505685,-0.4034914116260213,0.4034914116260213,0.9149834319505685,129.81241348129754,224.8804930116653)" fill="none" stroke="#0000ff" filter="url(#bbburst-blur-2)"></use><use xlink:href="#bbburst-shape-14" width="28.766243856164543" opacity="0.5367331248950715" transform="matrix(0.8623417159616371,0.5063267373073826,-0.5063267373073826,0.8623417159616371,756.863338425801,-77.29524788978557)" fill="none" stroke="#0000ff" filter="url(#bbburst-blur-2)"></use><use xlink:href="#bbburst-shape-13" width="16.462503786875054" opacity="0.9237206329453578" transform="matrix(0.9959160603368453,0.09028400059333368,-0.09028400059333368,0.9959160603368453,459.3654155177167,-12.864096086583288)" fill="none" stroke="#0000ff"></use><use xlink:href="#bbburst-shape-13" width="36.524854102393405" opacity="0.12594430268776768" transform="matrix(1.249772051396298,-0.023870893336640848,0.023870893336640848,1.249772051396298,199.40506076805673,256.06296230632495)" fill="none" stroke="#0000ff" filter="url(#bbburst-blur-3)"></use><use xlink:href="#bbburst-shape-10" width="14.947169542978875" opacity="0.8407092008659365" transform="matrix(0.9410836786540421,-0.3381737863450915,0.3381737863450915,0.9410836786540421,218.9550839712084,86.40305678043103)" fill="none" stroke="#0000ff"></use><use xlink:href="#bbburst-shape-10" width="18.20305921810588" opacity="0.8541801969773745" transform="matrix(0.7492831121803594,-0.6622498152520051,0.6622498152520051,0.7492831121803594,130.00450612472918,40.71799672394462)" fill="none" stroke="#0000ff"></use><use xlink:href="#bbburst-shape-14" width="29.795800298446284" opacity="0.41839558240544417" transform="matrix(0.9914127513011712,0.13076986104390437,-0.13076986104390437,0.9914127513011712,286.03458480660026,-211.8901552616277)" fill="none" stroke="#0000ff" filter="url(#bbburst-blur-2)"></use><use xlink:href="#bbburst-shape-10" width="15.752787387098795" opacity="0.9913011431841111" transform="matrix(0.8237897039205605,-0.5668955139304555,0.5668955139304555,0.8237897039205605,165.12621071494686,78.509521600271)" fill="none" stroke="#0000ff"></use><use xlink:href="#bbburst-shape-13" width="37.127693200450935" opacity="0.3463931755173746" transform="matrix(0.9999429369474114,-0.010682829633816456,0.010682829633816456,0.9999429369474114,233.83360234538617,257.0571881257058)" fill="none" stroke="#0000ff" filter="url(#bbburst-blur-2)"></use><use xlink:href="#bbburst-shape-14" width="34.157135803814086" opacity="0.3646805763417421" transform="matrix(0.9622611082860775,-0.2721278366504425,0.2721278366504425,0.9622611082860775,511.2880677753168,180.33123026544678)" fill="none" stroke="#0000ff" filter="url(#bbburst-blur-2)"></use><use xlink:href="#bbburst-shape-10" width="32.88669240624613" opacity="0.24186195925454435" transform="matrix(1.2137557992483257,0.2988258017492097,-0.2988258017492097,1.2137557992483257,610.9658574520988,232.04797231657267)" fill="none" stroke="#0000ff" filter="url(#bbburst-blur-3)"></use><use xlink:href="#bbburst-shape-13" width="24.629075358122606" opacity="0.699381162363466" transform="matrix(0.9009492316630017,0.4339245118287823,-0.4339245118287823,0.9009492316630017,513.1816927030386,160.25463358254626)" fill="none" stroke="#0000ff" filter="url(#bbburst-blur-1)"></use><use xlink:href="#bbburst-shape-13" width="32.779668832403146" opacity="0.47703560708712445" transform="matrix(0.943211999859617,-0.33219139561527156,0.33219139561527156,0.943211999859617,213.20542198604352,260.3299471632472)" fill="none" stroke="#0000ff" filter="url(#bbburst-blur-2)"></use><use xlink:href="#bbburst-shape-13" width="22.9001829336922" opacity="0.6992654923642703" transform="matrix(0.9583687277716103,-0.2855335035147804,0.2855335035147804,0.9583687277716103,140.94388143623738,39.755260321517426)" fill="none" stroke="#0000ff" filter="url(#bbburst-blur-1)"></use><use xlink:href="#bbburst-shape-13" width="21.38390709479544" opacity="0.708306479986927" transform="matrix(0.727957019531939,0.6856227663330442,-0.6856227663330442,0.727957019531939,566.0489497092155,16.95143356101954)" fill="none" stroke="#0000ff" filter="url(#bbburst-blur-1)"></use><use xlink:href="#bbburst-shape-10" width="25.096807290038488" opacity="0.5821460373679729" transform="matrix(0.9691143439732187,0.2466118170432186,-0.2466118170432186,0.9691143439732187,367.9812466290258,-136.73352250914178)" fill="none" stroke="#0000ff" filter="url(#bbburst-blur-1)"></use><use xlink:href="#bbburst-shape-10" width="24.395802707803732" opacity="0.8067010815237606" transform="matrix(0.9720721929604199,0.23468202247534906,-0.23468202247534906,0.9720721929604199,568.5943060965074,-0.08364013642500367)" fill="none" stroke="#0000ff"></use><use xlink:href="#bbburst-shape-14" width="36.442283837225716" opacity="0.19613049636187263" transform="matrix(1.2350418234317004,-0.19279962234013961,0.19279962234013961,1.2350418234317004,319.91903036931956,270.77062903179956)" fill="none" stroke="#0000ff" filter="url(#bbburst-blur-3)"></use><use xlink:href="#bbburst-shape-14" width="17.576427932086425" opacity="0.7589672831369012" transform="matrix(0.9792949756696991,0.20243851073371236,-0.20243851073371236,0.9792949756696991,399.0126719392611,86.4269362716891)" fill="none" stroke="#0000ff" filter="url(#bbburst-blur-1)"></use><use xlink:href="#bbburst-shape-13" width="21.124775686340662" opacity="0.8176227869635233" transform="matrix(0.7719734400884617,-0.6356547866554505,0.6356547866554505,0.7719734400884617,197.038196318762,41.35024700287329)" fill="none" stroke="#0000ff"></use><use xlink:href="#bbburst-shape-10" width="17.090758616209563" opacity="0.9151087341106804" transform="matrix(0.7855925195370955,-0.6187442066374103,0.6187442066374103,0.7855925195370955,118.60247165189804,64.21371495523846)" fill="none" stroke="#0000ff"></use><use xlink:href="#bbburst-shape-13" width="46.40878082644345" opacity="-0.07402744218129875" transform="matrix(1.6095724703561725,0.6868598566458284,-0.6868598566458284,1.6095724703561725,289.6853082738428,-595.4589089181936)" fill="none" stroke="#0000ff" filter="url(#bbburst-blur-4)"></use><use xlink:href="#bbburst-shape-13" width="42.968376995435015" opacity="0.44872928102389376" transform="matrix(0.9969491718310567,0.07805349950751832,-0.07805349950751832,0.9969491718310567,228.71002107138537,169.08708153938375)" fill="none" stroke="#0000ff" filter="url(#bbburst-blur-2)"></use><use xlink:href="#bbburst-shape-14" width="37.25080139502322" opacity="-0.07549613171029201" transform="matrix(1.723806896034825,-0.3016451312101397,0.3016451312101397,1.723806896034825,592.640468470549,-622.839714645485)" fill="none" stroke="#0000ff" filter="url(#bbburst-blur-4)"></use><use xlink:href="#bbburst-shape-10" width="39.65043501993162" opacity="0.08939563732374645" transform="matrix(1.4145747186758004,1.0302807215915863,-1.0302807215915863,1.4145747186758004,985.9372086811522,170.34227842301118)" fill="none" stroke="#0000ff" filter="url(#bbburst-blur-4)"></use><use xlink:href="#bbburst-shape-13" width="20.075020725567143" opacity="0.90067188625376" transform="matrix(0.9971999078655545,0.07478197478623905,-0.07478197478623905,0.9971999078655545,377.21214742729813,13.610916165030062)" fill="none" stroke="#0000ff"></use><use xlink:href="#bbburst-shape-10" width="34.67185737529025" opacity="0.1747216645767542" transform="matrix(1.1348781679626565,-0.5239766634896293,0.5239766634896293,1.1348781679626565,429.3341331950147,-311.4124500116275)" fill="none" stroke="#0000ff" filter="url(#bbburst-blur-3)"></use><use xlink:href="#bbburst-shape-14" width="25.8620773183613" opacity="0.6000324574665578" transform="matrix(0.8185541697135096,0.5744293439968287,-0.5744293439968287,0.8185541697135096,798.9049280984964,55.74603283018166)" fill="none" stroke="#0000ff" filter="url(#bbburst-blur-1)"></use><use xlink:href="#bbburst-shape-13" width="30.525436314583395" opacity="0.5533476425204517" transform="matrix(0.9003597023421614,-0.4351464194938693,0.4351464194938693,0.9003597023421614,396.0863717938241,127.63969107056329)" fill="none" stroke="#0000ff" filter="url(#bbburst-blur-2)"></use><use xlink:href="#bbburst-shape-14" width="37.11814816951734" opacity="0.4181238080484386" transform="matrix(0.9680077201680916,-0.25092041306951046,0.25092041306951046,0.9680077201680916,538.3297122078666,69.39551603866374)" fill="none" stroke="#0000ff" filter="url(#bbburst-blur-2)"></use><use xlink:href="#bbburst-shape-14" width="32.82088519218577" opacity="0.6132439266277891" transform="matrix(0.9827220826936393,-0.18508729882484137,0.18508729882484137,0.9827220826936393,323.41645301697764,-163.51828200131095)" fill="none" stroke="#0000ff" filter="url(#bbburst-blur-1)"></use><use xlink:href="#bbburst-shape-10" width="19.57485971986715" opacity="0.7419863686294826" transform="matrix(0.80192646169143,-0.5974227565460354,0.5974227565460354,0.80192646169143,184.42875832422854,-26.745876189423427)" fill="none" stroke="#0000ff" filter="url(#bbburst-blur-1)"></use><use xlink:href="#bbburst-shape-13" width="28.309315689459034" opacity="0.7089767769103048" transform="matrix(0.8557877846819467,-0.5173270412313337,0.5173270412313337,0.8557877846819467,305.9318224862924,104.14358122664777)" fill="none" stroke="#0000ff" filter="url(#bbburst-blur-1)"></use><use xlink:href="#bbburst-shape-13" width="36.037208128700065" opacity="0.28379236401036567" transform="matrix(1.2496871269768375,-0.02796577673475146,0.02796577673475146,1.2496871269768375,506.1350786914194,-389.7467593104894)" fill="none" stroke="#0000ff" filter="url(#bbburst-blur-3)"></use><use xlink:href="#bbburst-shape-13" width="31.90402033552162" opacity="0.5686735896271488" transform="matrix(0.9007643448135993,0.4343081798821283,-0.4343081798821283,0.9007643448135993,696.0663305579908,170.54649562521706)" fill="none" stroke="#0000ff" filter="url(#bbburst-blur-1)"></use><use xlink:href="#bbburst-shape-10" width="40.94331389374928" opacity="0.05116894115516102" transform="matrix(1.7428435837754095,0.15810200028110677,-0.15810200028110677,1.7428435837754095,190.4598800974804,-655.4647334391213)" fill="none" stroke="#0000ff" filter="url(#bbburst-blur-4)"></use><use xlink:href="#bbburst-shape-10" width="26.889827151843516" opacity="0.5464872975590025" transform="matrix(0.7562929125740321,-0.6542331620991766,0.6542331620991766,0.7562929125740321,74.67674171371539,-90.6748269285601)" fill="none" stroke="#0000ff" filter="url(#bbburst-blur-2)"></use><use xlink:href="#bbburst-shape-13" width="35.62290859802818" opacity="0.37932363092364574" transform="matrix(0.7447858759515997,0.667303528375962,-0.667303528375962,0.7447858759515997,591.8166790006688,-182.17265117212008)" fill="none" stroke="#0000ff" filter="url(#bbburst-blur-2)"></use><use xlink:href="#bbburst-shape-10" width="32.927121420627444" opacity="0.22246232714534553" transform="matrix(1.2499999999575695,0.000010299328658405235,-0.000010299328658405235,1.2499999999575695,375.82479904912094,-449.87360305955735)" fill="none" stroke="#0000ff" filter="url(#bbburst-blur-3)"></use><use xlink:href="#bbburst-shape-14" width="30.97651562127494" opacity="0.0643570897708804" transform="matrix(1.3147562700560695,1.1549527913937658,-1.1549527913937658,1.3147562700560695,1063.9220360239942,-501.27371800826694)" fill="none" stroke="#0000ff" filter="url(#bbburst-blur-4)"></use><use xlink:href="#bbburst-shape-13" width="32.243035033841586" opacity="0.30386382615796015" transform="matrix(1.2387447113029455,0.1673664847542139,-0.1673664847542139,1.2387447113029455,710.22562448965,-267.9970074136475)" fill="none" stroke="#0000ff" filter="url(#bbburst-blur-3)"></use><use xlink:href="#bbburst-shape-13" width="35.71673749721336" opacity="0.5515991870194332" transform="matrix(0.7789938467121281,0.6270315676141366,-0.6270315676141366,0.7789938467121281,452.7546834474455,159.69968203051752)" fill="none" stroke="#0000ff" filter="url(#bbburst-blur-2)"></use><use xlink:href="#bbburst-shape-13" width="26.07445320427301" opacity="0.7164572077762679" transform="matrix(0.8924785379529737,-0.45108985722727407,0.45108985722727407,0.8924785379529737,296.0827387407286,141.134559142978)" fill="none" stroke="#0000ff" filter="url(#bbburst-blur-1)"></use><use xlink:href="#bbburst-shape-13" width="24.963693291183468" opacity="0.6948048896954522" transform="matrix(0.9940100243812559,0.10928893553134851,-0.10928893553134851,0.9940100243812559,299.06816761156614,-36.03791091666591)" fill="none" stroke="#0000ff" filter="url(#bbburst-blur-1)"></use><use xlink:href="#bbburst-shape-13" width="40.524401549905974" opacity="-0.06669704852322345" transform="matrix(1.668164643647449,0.5288919754397671,-0.5288919754397671,1.668164643647449,915.6342632102076,62.97433177890184)" fill="none" stroke="#0000ff" filter="url(#bbburst-blur-4)"></use><use xlink:href="#bbburst-shape-10" width="40.332554074922164" opacity="0.4100449991885434" transform="matrix(0.979712390826826,-0.20040866064215995,0.20040866064215995,0.979712390826826,38.278290801389005,-31.885442595642303)" fill="none" stroke="#0000ff" filter="url(#bbburst-blur-2)"></use><use xlink:href="#bbburst-shape-13" width="31.193038544494712" opacity="0.27211000471055713" transform="matrix(1.2278944486646077,-0.23404107105087085,0.23404107105087085,1.2278944486646077,227.75469864754137,234.59754013807282)" fill="none" stroke="#0000ff" filter="url(#bbburst-blur-3)"></use><use xlink:href="#bbburst-shape-13" width="23.9856906402115" opacity="0.6298386326521654" transform="matrix(0.9979031361771957,-0.06472504003642847,0.06472504003642847,0.9979031361771957,357.7272717411623,168.12907837615376)" fill="none" stroke="#0000ff" filter="url(#bbburst-blur-1)"></use><use xlink:href="#bbburst-shape-10" width="31.42324124924366" opacity="0.15069452961600782" transform="matrix(0.976874965481789,0.7798815947404796,-0.7798815947404796,0.976874965481789,341.0534556029824,137.17815105120485)" fill="none" stroke="#0000ff" filter="url(#bbburst-blur-3)"></use><use xlink:href="#bbburst-shape-13" width="33.87109249930837" opacity="0.23063872569372257" transform="matrix(1.2380839235663692,-0.1721865215587589,0.1721865215587589,1.2380839235663692,-33.735991363371355,-52.31456968877711)" fill="none" stroke="#0000ff" filter="url(#bbburst-blur-3)"></use><use xlink:href="#bbburst-shape-13" width="25.933160180185634" opacity="0.6827099055008834" transform="matrix(0.9859416237656067,-0.16709013892638566,0.16709013892638566,0.9859416237656067,452.8903912196637,-45.381313595278755)" fill="none" stroke="#0000ff" filter="url(#bbburst-blur-1)"></use><use xlink:href="#bbburst-shape-13" width="34.394381326067574" opacity="0.2640672615386894" transform="matrix(0.9774607849460544,-0.7791472350542246,0.7791472350542246,0.9774607849460544,-234.20351801178919,-104.8623423023027)" fill="none" stroke="#0000ff" filter="url(#bbburst-blur-3)"></use><use xlink:href="#bbburst-shape-10" width="34.192116539641276" opacity="0.5899857117029658" transform="matrix(0.7319178708116846,-0.6813928605338407,0.6813928605338407,0.7319178708116846,182.68263359222834,290.49840121510886)" fill="none" stroke="#0000ff" filter="url(#bbburst-blur-1)"></use><use xlink:href="#bbburst-shape-13" width="30.75641420938086" opacity="0.2534255363971676" transform="matrix(0.9784769119074981,-0.7778707687424474,0.7778707687424474,0.9784769119074981,-90.83527350457317,-272.27979150276354)" fill="none" stroke="#0000ff" filter="url(#bbburst-blur-3)"></use><use xlink:href="#bbburst-shape-14" width="32.27520320920796" opacity="0.2187252148465716" transform="matrix(1.232870794149004,0.20622707129376525,-0.20622707129376525,1.232870794149004,794.2788949517534,20.127983639520835)" fill="none" stroke="#0000ff" filter="url(#bbburst-blur-3)"></use><use xlink:href="#bbburst-shape-13" width="38.40118194713171" opacity="-0.0622069200757045" transform="matrix(1.6891408226713422,0.45749675538213486,-0.45749675538213486,1.6891408226713422,229.6808640939009,69.83340523382788)" fill="none" stroke="#0000ff" filter="url(#bbburst-blur-4)"></use><use xlink:href="#bbburst-shape-10" width="16.611918663298354" opacity="0.8831497502522194" transform="matrix(0.8253036489199607,-0.5646891951147979,0.5646891951147979,0.8253036489199607,193.78113630025956,119.97871489848319)" fill="none" stroke="#0000ff"></use><use xlink:href="#bbburst-shape-13" width="34.07249441288454" opacity="0.17115231050793944" transform="matrix(1.1818119981614965,-0.407210511899596,0.407210511899596,1.1818119981614965,312.8629809725985,-426.23445528929443)" fill="none" stroke="#0000ff" filter="url(#bbburst-blur-3)"></use><use xlink:href="#bbburst-shape-13" width="42.239531899406145" opacity="0.18601398197262597" transform="matrix(0.9326638548850719,-0.8322488412673925,0.8322488412673925,0.9326638548850719,-314.06918700002376,-14.725944148012502)" fill="none" stroke="#0000ff" filter="url(#bbburst-blur-3)"></use><use xlink:href="#bbburst-shape-14" width="48.2496206548743" opacity="0.08261251911583734" transform="matrix(1.548161722065052,-0.8159015150939312,0.8159015150939312,1.548161722065052,-321.85180996779525,-404.71205295402365)" fill="none" stroke="#0000ff" filter="url(#bbburst-blur-4)"></use><use xlink:href="#bbburst-shape-14" width="39.56505876038826" opacity="0.038877479841165186" transform="matrix(1.6930474513737186,0.44282087506909207,-0.44282087506909207,1.6930474513737186,191.687975135761,-34.47208005590278)" fill="none" stroke="#0000ff" filter="url(#bbburst-blur-4)"></use><use xlink:href="#bbburst-shape-13" width="15.476765553174285" opacity="0.8077974437796674" transform="matrix(0.9968941913787561,-0.07875259484801689,0.07875259484801689,0.9968941913787561,279.7425678172713,32.06612315305904)" fill="none" stroke="#0000ff"></use><use xlink:href="#bbburst-shape-13" width="15.70675389903902" opacity="0.9057119540177573" transform="matrix(0.9033703555648311,0.4288612837348116,-0.4288612837348116,0.9033703555648311,555.8204998284834,76.82664408731807)" fill="none" stroke="#0000ff"></use><use xlink:href="#bbburst-shape-13" width="26.517555502671193" opacity="0.4284398208419882" transform="matrix(0.8192833621137248,0.5733888493541109,-0.5733888493541109,0.8192833621137248,858.0979018384393,-28.81615546761509)" fill="none" stroke="#0000ff" filter="url(#bbburst-blur-2)"></use><use xlink:href="#bbburst-shape-13" width="37.561054106852865" opacity="0.4196987341849707" transform="matrix(0.8483112982007067,0.5294978199624921,-0.5294978199624921,0.8483112982007067,637.7302460270569,-207.0269715334486)" fill="none" stroke="#0000ff" filter="url(#bbburst-blur-2)"></use><use xlink:href="#bbburst-shape-10" width="24.89672650613882" opacity="0.7463956337419997" transform="matrix(0.9977100444290815,-0.06763628645424102,0.06763628645424102,0.9977100444290815,396.48283547541666,110.06723607675502)" fill="none" stroke="#0000ff" filter="url(#bbburst-blur-1)"></use><use xlink:href="#bbburst-shape-13" width="31.72724426335842" opacity="0.5569937024829101" transform="matrix(0.9650574915333301,-0.26203823773525203,0.26203823773525203,0.9650574915333301,101.19635193261772,-70.27055739412435)" fill="none" stroke="#0000ff" filter="url(#bbburst-blur-1)"></use><use xlink:href="#bbburst-shape-13" width="37.392664823277" opacity="0.4259621849048214" transform="matrix(0.9997635706826502,-0.021744027590984254,0.021744027590984254,0.9997635706826502,119.57076703088745,52.44910476383171)" fill="none" stroke="#0000ff" filter="url(#bbburst-blur-2)"></use><use xlink:href="#bbburst-shape-13" width="36.951816272468264" opacity="0.3206180053391453" transform="matrix(1.0997274887647817,0.5942217182627262,-0.5942217182627262,1.0997274887647817,351.27121524933136,99.65328422226844)" fill="none" stroke="#0000ff" filter="url(#bbburst-blur-3)"></use><use xlink:href="#bbburst-shape-14" width="34.88662839598628" opacity="0.20506607403184718" transform="matrix(1.2226468576706175,-0.26006664805038915,0.26006664805038915,1.2226468576706175,631.3558240994398,-57.42981209175497)" fill="none" stroke="#0000ff" filter="url(#bbburst-blur-3)"></use><use xlink:href="#bbburst-shape-14" width="39.17466344080122" opacity="0.40222968246853086" transform="matrix(0.996097443027797,-0.08826031947304927,0.08826031947304927,0.996097443027797,497.1319589659843,225.3171368399482)" fill="none" stroke="#0000ff" filter="url(#bbburst-blur-2)"></use><use xlink:href="#bbburst-shape-13" width="35.89849504062098" opacity="0.19205828228020816" transform="matrix(1.1538107510849882,0.48085418858599466,-0.48085418858599466,1.1538107510849882,821.1228667822058,194.30647385323164)" fill="none" stroke="#0000ff" filter="url(#bbburst-blur-3)"></use></svg>